<svg xmlns="http://www.w3.org/2000/svg" xmlns:xlink="http://www.w3.org/1999/xlink" width="559.37" height="491.33" viewBox="0 0 419.53 368.5">
  <defs>
    <path id="a" d="M12.36-13.19q0 .36-.08.92a24 24 0 0 1-.33 2.18h-.8q-.2-1-.34-1.58-.12-.58-.58-.58h-3.3l.32-1.28h4.7Zm-10.19.94q-.33 0-.6.5-.28.48-.76 1.75l-.78-.3a36 36 0 0 1 .27-2.25q.08-.6.17-.98h5.12l.13 1.28ZM3.22 0v-.78a5 5 0 0 0 1.34-.4q.35-.23.35-.38v-10.77q0-.12-.32-.19l-1.09-.23v-.78h5.63v.78q-.72.15-1.15.22-.4.05-.4.2v10.77q0 .14.34.36t1.35.42V0Zm0 0"/>
    <path id="b" d="M5.08-13.55q0 .72-.52 1.2-.51.45-1.28.44-.6 0-1.05-.3-.42-.3-.42-.9 0-.73.52-1.17.51-.45 1.26-.45.58 0 1.04.28.45.28.45.9M.68 0v-.78q.7-.15 1.05-.33t.36-.33v-5.53q0-.71-.06-1.08-.04-.37-.36-.51-.3-.15-1-.22v-.77q.93-.12 1.75-.3.82-.2 1.56-.46h.7v8.87q0 .13.3.31.33.2 1.13.35V0Zm0 0"/>
    <path id="c" d="M7.9-1.67Q6.5-.63 5.49-.16a4 4 0 0 1-1.54.49Q3 .33 2.34-.4t-.67-2.23v-6.02H.36l-.31-.4.84-.94h.78v-2.25l2.16-1.61.42.36v3.5h3.27l.39.37q-.2.38-.55.78-.33.4-.53.56-.27-.13-.78-.25-.52-.12-1.08-.12h-.72v5.02q0 1.1.25 1.54.24.45.66.44.38 0 .87-.16.5-.17 1.4-.65Zm0 0"/>
    <path id="d" d="M.56 0v-.78a5 5 0 0 0 1.24-.33q.3-.15.3-.33v-12.15q0-.64-.12-.93a.6.6 0 0 0-.4-.36q-.3-.08-.9-.17v-.75q1.07-.14 1.87-.32.81-.19 1.67-.54l.45.46v14.76q0 .16.33.33t1.2.33V0Zm0 0"/>
    <path id="e" d="M9.95-5.9q-.2.21-.68.48-.49.26-.83.39H1.95l.03-1.2h4.99q.24 0 .33-.08.08-.08.08-.32 0-.41-.18-.98-.15-.56-.58-.98a1.5 1.5 0 0 0-1.14-.44Q4.31-9.03 3.83-8a7 7 0 0 0-.47 2.73q0 1.64.69 2.72a2.3 2.3 0 0 0 2.01 1.07q.45 0 .88-.08t.98-.36q.57-.28 1.4-.86.15.08.34.34l.23.35q-1 1.01-1.75 1.53a4.6 4.6 0 0 1-2.98.89q-1.23 0-2.24-.64A4.6 4.6 0 0 1 1.3-2.1Q.7-3.23.7-4.75a5.3 5.3 0 0 1 3.57-5.27q.8-.3 1.6-.3 1.4 0 2.3.63t1.35 1.63q.42 1 .43 2.15m0 0"/>
    <path id="f" d="M9.6-2.05A9 9 0 0 1 7.9-.48a4.4 4.4 0 0 1-2.74.8q-1.18 0-2.2-.6a4.5 4.5 0 0 1-1.63-1.75A5.6 5.6 0 0 1 .7-4.77a5.4 5.4 0 0 1 2.78-4.8 6 6 0 0 1 4.1-.63q.62.1 1.15.3.54.18.77.43.03.14-.06.53-.09.4-.24.86l-.3.88q-.15.4-.24.54l-.72-.1a5 5 0 0 0-.88-1.63q-.51-.58-1.37-.58a2 2 0 0 0-1.17.4 2.6 2.6 0 0 0-.9 1.23 6 6 0 0 0-.34 2.23q0 1.73.81 2.67.83.96 2 .96.41 0 .79-.08.37-.07.87-.33a10 10 0 0 0 1.27-.84Zm0 0"/>
    <path id="g" d="M10.92-1.2A13 13 0 0 1 8.5.1a2 2 0 0 1-.8.23q-.44 0-.73-.56-.28-.58-.28-1.54v-5.6q0-.68-.3-1.11-.28-.45-1.1-.44-.51 0-.96.37t-.4 1q.03.12-.35.27-.36.15-.9.31-.51.14-.96.24-.45.08-.56.04l-.24-.58q.35-.84 1.19-1.53a6.7 6.7 0 0 1 4.3-1.51q1.47 0 2.17.75.69.73.69 1.83v5.17q0 .84.43.84.14 0 .35-.06t.62-.24ZM6.8-5.08q-1.35.23-1.9.42-.57.2-.85.5t-.46.61q-.17.32-.17.77 0 .74.36.98t.64.24q.42 0 .97-.24.56-.23 1.4-.98l.1 1.2a6 6 0 0 1-2.01 1.5q-1 .4-1.74.4-.58 0-1.16-.27a2 2 0 0 1-.92-.82A2.5 2.5 0 0 1 .7-2.16q0-.73.27-1.23.26-.51.66-.92.35-.35.87-.66.53-.3 1.53-.6 1-.29 2.77-.57Zm0 0"/>
    <path id="h" d="M8.4-3.05q0 1.14-.48 1.83-.48.68-1.19 1.02-.7.33-1.42.42-.7.1-1.17.1-.68 0-1.58-.18a5 5 0 0 1-1.6-.6Q.92-.5.87-.85A9 9 0 0 1 .89-2.7a5 5 0 0 1 .16-.9l.86.12q.23 1.14.95 1.8.73.69 1.66.68 1.5 0 1.51-1.2 0-.82-.75-1.36-.74-.53-1.83-1.1-.6-.3-1.17-.7a4 4 0 0 1-.95-.89 2 2 0 0 1-.38-1.19q0-.9.55-1.53.54-.63 1.42-.98.9-.36 1.86-.36.92 0 1.83.23.9.22 1.4.6.06.04.02.36-.03.3-.14.68a6 6 0 0 1-.5 1.28l-.73-.07q-.56-1.96-2-1.96-.65 0-1 .31a1 1 0 0 0-.35.74q0 .64.6 1.06T5.77-6q.62.32 1.23.7.6.38 1 .92t.4 1.33m0 0"/>
    <path id="M" d="m10.95-3.27-.14 1.3A26 26 0 0 1 10.5 0H.47v-.78q1.47-.3 1.47-.66v-10.64q0-.14-.36-.33-.34-.18-1.11-.34v-.78H6.1v.78q-1.5.31-1.49.67v10q0 .38.41.58.42.2 1.6.2h1.2q.67 0 1.06-.2.4-.21.69-.7.28-.5.58-1.35Zm0 0"/>
    <path id="N" d="M10.84-5.2q0 1.06-.42 2.06A5.8 5.8 0 0 1 7.6-.12q-.95.45-2.01.45Q4.08.33 3-.34a4.6 4.6 0 0 1-1.7-1.82 5.8 5.8 0 0 1 .88-6.45A5 5 0 0 1 6-10.3q1.43 0 2.54.67a4.5 4.5 0 0 1 1.68 1.81q.61 1.14.61 2.63m-2.7.47q0-1.13-.31-2.08a4 4 0 0 0-.88-1.57q-.55-.59-1.26-.59-.9 0-1.4.52-.5.5-.68 1.39a10 10 0 0 0-.19 1.98q0 1.13.33 2.05.34.92.9 1.47t1.22.54q1.29 0 1.77-.96.5-.98.5-2.75m0 0"/>
    <path id="O" d="M15.63-9.2q-.6.14-.8.28a.6.6 0 0 0-.27.37L12.2-.65a1 1 0 0 1-.4.53q-.3.2-.65.3l-.5.15-3.06-7 .48-3.31h.77l2.7 6.51 1.55-5.08q.08-.22-.06-.39-.15-.15-.88-.26v-.78h3.48ZM5.72-.64q-.12.34-.4.55-.3.19-.62.28l-.5.14-2.89-8.88Q1.17-8.97.14-9.2v-.78H5v.78q-.93.1-1.1.28-.16.18-.07.37l1.6 5.08L8-9.98h.75l.06 1.76Zm0 0"/>
    <path id="P" d="M9.4-9.84q.1.06.05.51a12 12 0 0 1-.47 2.25q-.15.57-.28.86h-.78a4 4 0 0 0-.39-1.48q-.3-.63-.81-.63-.27 0-.63.16-.37.15-.76.64-.39.47-.81 1.39v4.7q0 .16.43.33.45.18 1.46.33V0H.5v-.78q1.43-.33 1.43-.66v-5.7q0-.7-.08-.99a1 1 0 0 0-.17-.37 1 1 0 0 0-.36-.19 5 5 0 0 0-.81-.1v-.76q.78-.09 1.3-.18a11 11 0 0 0 1-.25l1.09-.33.43.45.14 1.56q.6-.82 1.44-1.42a3.1 3.1 0 0 1 3.49-.12m0 0"/>
    <path id="Q" d="M14.1-12.75q-1.47.31-1.47.67v6.46a7 7 0 0 1-.7 3.21 5 5 0 0 1-1.87 2.04q-1.2.7-2.75.7a7 7 0 0 1-2.7-.55A4.6 4.6 0 0 1 2.66-1.9a5 5 0 0 1-.72-2.86v-7.3q0-.15-.36-.34-.34-.18-1.11-.34v-.78H6.1v.78q-1.5.31-1.49.67v6.61q0 2.07.75 3.16.77 1.08 2.61 1.08 1.02 0 1.61-.58.61-.6.88-1.53.28-.95.28-2v-6.74q0-.14-.36-.33-.34-.18-1.12-.34v-.78h4.84Zm0 0"/>
    <path id="R" d="M7.42.33q-.63 0-1.3-.28T4.53-.9v4.6q0 .16.39.34.4.17 1.42.33v.78H.52v-.79q1.42-.34 1.42-.67V-7.4q0-.54-.08-.82a.5.5 0 0 0-.38-.4q-.3-.13-.96-.16v-.77q.8-.09 1.36-.18.54-.11 1.01-.25l1.02-.33.43.45.11 1.31A8 8 0 0 1 6.5-9.94a4 4 0 0 1 1.48-.37q.98 0 1.8.53t1.33 1.62a6.74 6.74 0 0 1-2.3 8q-.73.49-1.39.49M6.7-8.48q-.25 0-.52.09t-.65.34-1 .77v4.83q.75.43 1.25.65.49.21.84.27.36.05.7.05.82 0 1.35-.8t.53-2.3q0-1.37-.38-2.23-.37-.86-.94-1.27-.56-.4-1.18-.4m0 0"/>
    <path id="S" d="m8.81-10.8-.72-.06a3 3 0 0 0-1.18-1.39q-.7-.37-1.32-.37-1.07 0-1.56.51-.47.51-.47 1.13 0 .69.5 1.17t1.27.89l1.65.83q.88.42 1.64.96.78.54 1.29 1.29.5.73.5 1.8 0 .71-.33 1.48-.34.75-1 1.4Q8.42-.5 7.4-.08A6.3 6.3 0 0 1 3.83.2q-.68-.13-1.4-.36a5 5 0 0 1-1.18-.56q-.06-.06-.1-.43a10 10 0 0 1 0-2q.07-.56.18-.96l.76.04Q2.57-2.79 3.5-2q.9.78 2 .78.96 0 1.73-.53.76-.54.76-1.56 0-.87-.5-1.46a4 4 0 0 0-1.26-.98 25 25 0 0 0-1.63-.81 16 16 0 0 1-1.64-.86Q2.2-7.9 1.7-8.58a2.9 2.9 0 0 1-.2-2.84q.27-.61.87-1.16.6-.56 1.53-.92a6 6 0 0 1 2.25-.36q1.16 0 2.17.28 1.02.28 1.42.7.06.09-.01.36-.09.29-.25.64l-.36.66q-.18.3-.3.42m0 0"/>
    <path id="T" d="M7.13 0v-.78q.75-.2 1.09-.36.33-.15.33-.3V-6.3q0-1.2-.25-1.61-.25-.45-.9-.44-.51 0-1.18.31-.68.3-1.7 1.2v5.41q0 .36 1.42.66V0H.52v-.78q1.42-.37 1.42-.66V-7.4q0-.54-.06-.8-.08-.27-.36-.38-.3-.1-1-.2v-.76a13 13 0 0 0 3.39-.76l.43.45.13 1.55A10 10 0 0 1 6.8-9.84a5 5 0 0 1 1.94-.47q.92 0 1.64.62.73.63.73 2.13v6.12q0 .15.29.3.3.14 1.14.36V0Zm0 0"/>
    <path id="i" d="m2.88 1.22-.07.2-.08.22H.7V-7.8h2l.17.12q0 .13-.06.25l-.08.19H1.38v8.33H2.7Zm0 0"/>
    <path id="j" d="M4.23-2.72q-.09.1-.25.19l-.3.14H.9l.02-.44h2.34q.1 0 .14-.03a.3.3 0 0 0 .03-.16q0-.12-.04-.3a1 1 0 0 0-.15-.4 1 1 0 0 0-.3-.33 1 1 0 0 0-.5-.12q-.4 0-.7.23-.28.22-.45.61-.15.39-.16.9 0 .51.18.96t.5.72.76.27q.22 0 .4-.05.2-.05.45-.19.24-.14.6-.44l.12.11.07.1q-.44.46-.75.72-.3.22-.58.3-.26.07-.6.07-.5 0-.94-.28a2 2 0 0 1-.69-.78 3 3 0 0 1-.25-1.2q0-.66.28-1.24a2.4 2.4 0 0 1 1.31-1.2 1.6 1.6 0 0 1 1.38.06q.33.2.52.48.18.3.26.64.1.35.1.66m0 0"/>
    <path id="k" d="M3.27 0v-.2q.68-.19.68-.32v-2.57q0-.6-.14-.77t-.48-.19q-.3 0-.74.32-.43.3-.9 1.04v2.17q0 .09.19.16.18.08.5.16V0H.27v-.2l.5-.16q.18-.07.18-.16v-2.95q0-.25-.03-.37-.03-.13-.19-.18L.27-4.1v-.19a4 4 0 0 0 1.17-.39l.17.17.06 1.22q.28-.44.63-.75.36-.3.7-.47.36-.16.6-.17.44 0 .76.27.33.25.33.8v3.1q0 .08.14.15t.54.17V0Zm0 0"/>
    <path id="l" d="M.36 1.64.2 1.5l.05-.25.08-.17H1.7v-8.33H.36L.2-7.37l.05-.24.08-.2h2.06v9.45Zm0 0"/>
    <path id="m" d="M3.98-7.1q0 .06-.1.16-.12.12-.27.22l-.23.16a2 2 0 0 0-.47-.3q-.24-.1-.36-.1-.18 0-.38.18-.18.15-.33.6-.14.41-.14 1.21v.42h1.27l.14.14q-.1.15-.25.3t-.23.2a2 2 0 0 0-.92-.17V-.5q0 .06.21.13l.81.17V0H.3v-.2q.32-.06.5-.14.18-.1.18-.16v-3.58H.33l-.11-.14.37-.33H1v-.14q0-.78.12-1.23.14-.45.36-.72t.48-.49q.27-.2.6-.3.33-.13.53-.13.18 0 .4.1.23.07.36.2.15.1.14.17m1.04.94a.7.7 0 0 1-.18.47q-.15.2-.39.2-.42 0-.42-.46 0-.3.17-.47.18-.2.4-.2.42 0 .42.46M3.45 0v-.2q.7-.15.7-.32v-2.75a3 3 0 0 0-.04-.5q-.03-.16-.17-.23t-.49-.1v-.2l.66-.15q.35-.1.6-.24h.17v4.17q0 .07.15.16t.52.16V0Zm0 0"/>
    <path id="n" d="M3.77-4.5q.05.02.03.27-.02.21-.1.48t-.15.45h-.2q-.07-.4-.23-.54A.4.4 0 0 0 2.8-4q-.22 0-.55.38-.32.38-.56 1.2v1.9q0 .09.17.16t.66.16V0H.27v-.2q.32-.07.5-.16.18-.07.18-.16v-2.82q0-.33-.03-.46a.4.4 0 0 0-.08-.17l-.18-.1-.4-.04v-.19l.63-.15q.31-.1.55-.24l.17.17.06 1.11q.27-.54.61-.9.36-.38.78-.38.15 0 .33.05.19.03.38.14m0 0"/>
    <path id="o" d="M3.42-1.37q0 .52-.2.82t-.5.46-.56.18q-.29.05-.43.05a2 2 0 0 1-.56-.1A3 3 0 0 1 .52-.2Q.48-.23.47-.37V-.7l.01-.4q.03-.18.07-.27l.22.04q0 .42.36.7.35.3.85.29a.8.8 0 0 0 .57-.2.7.7 0 0 0 .23-.57.6.6 0 0 0-.12-.37q-.11-.15-.4-.32-.26-.17-.68-.39-.29-.15-.53-.31a2 2 0 0 1-.4-.4 1 1 0 0 1-.13-.52q0-.4.2-.69t.53-.42q.34-.15.7-.16a2.5 2.5 0 0 1 1.3.38q.04.03-.02.2-.04.15-.12.31L3-3.58l-.19-.04q-.23-.35-.48-.49-.26-.14-.5-.14a.7.7 0 0 0-.5.2.6.6 0 0 0-.19.4q0 .25.27.45.26.18.8.47.3.15.57.32.29.18.45.43.2.23.2.6m0 0"/>
    <path id="p" d="M3.3-.58q-.47.36-.92.55-.45.17-.7.17a.8.8 0 0 1-.6-.26Q.83-.41.83-1.08v-3H.2l-.1-.14.38-.33h.35v-1.2l.58-.5.15.13v1.57h1.6l.14.14q-.1.15-.25.3t-.24.2q-.12-.06-.36-.1a3 3 0 0 0-.64-.07h-.25v2.58q0 .6.11.81.12.2.42.2.18 0 .43-.06.26-.07.64-.28Zm0 0"/>
    <path id="q" d="M1.9-6.16a.7.7 0 0 1-.17.47q-.15.2-.39.2-.42 0-.42-.46 0-.3.17-.47.18-.2.4-.2.42 0 .42.46M.35 0v-.2q.7-.15.7-.32v-2.75a3 3 0 0 0-.04-.5Q.97-3.93.83-4t-.49-.1v-.2L1-4.45q.35-.1.6-.24h.17v4.17q0 .07.15.16.16.08.52.16V0Zm0 0"/>
    <path id="r" d="M5.8 0v-.2q.66-.19.67-.32v-2.57q0-.6-.13-.8-.12-.22-.42-.22-.33 0-.72.36-.39.35-.76.95v2.28q0 .08.15.15l.54.17V0h-2.1v-.2q.69-.19.69-.32v-2.57q0-.6-.13-.8-.12-.22-.43-.22-.33 0-.7.36-.37.35-.77.95v2.28q0 .09.19.16.18.08.5.16V0H.27v-.2l.5-.16q.18-.07.18-.16v-2.95q0-.26-.04-.37a.3.3 0 0 0-.18-.18L.27-4.1v-.19a4 4 0 0 0 1.17-.39l.17.17.06 1.11q.42-.63.88-.95.46-.33.8-.33.48 0 .77.25.32.25.32.9v.1q.42-.6.87-.92t.82-.33q.45 0 .76.27.3.25.31.8v3.1q0 .08.14.15l.55.17V0Zm0 0"/>
    <path id="s" d="M3.05.14q-.29 0-.66-.16a3 3 0 0 1-.7-.46v2.3q0 .09.17.16t.66.16v.2H.27v-.2q.32-.07.5-.16.18-.06.18-.15v-5.3q0-.25-.04-.37-.04-.15-.2-.2-.13-.05-.44-.07v-.19l.6-.15q.3-.1.57-.24l.17.17.05.97q.48-.6.95-.86.48-.27.77-.28.65 0 1.09.61T4.9-2.4q0 .43-.16.88t-.42.83a3 3 0 0 1-.6.6q-.32.24-.68.24m0-4.22q-.2 0-.57.24t-.8.86v1.93q.45.33.76.46.32.1.6.1.52 0 .87-.4t.34-1.19q0-.57-.17-1.03a2 2 0 0 0-.46-.7.8.8 0 0 0-.57-.27m0 0"/>
    <path id="t" d="M5.22-.4q-.36.23-.66.38-.3.16-.4.16-.17 0-.29-.22-.1-.23-.14-.73-.4.4-.71.6A2 2 0 0 1 2 .15q-.31 0-.58-.12a1 1 0 0 1-.44-.44Q.83-.75.83-1.36v-2.1q0-.32-.03-.45a.3.3 0 0 0-.18-.18 2 2 0 0 0-.42-.08v-.19a4 4 0 0 0 1.22-.33l.14.19v2.88q0 .67.19.93.2.25.56.25.32 0 .66-.18.34-.21.76-.66v-2.19q0-.3-.04-.44a.3.3 0 0 0-.19-.18q-.15-.06-.45-.08v-.19q.36-.05.67-.14.33-.09.6-.19l.15.19v3.27l.01.48q.04.19.1.23.05.06.2.04.14-.03.4-.15Zm0 0"/>
    <path id="u" d="M.3 0v-.2q.42-.07.57-.16.15-.07.16-.16v-5.8q0-.3-.06-.41a.4.4 0 0 0-.22-.18q-.15-.04-.4-.07v-.2q.34-.07.63-.15.3-.08.6-.23l.19.15v6.9q0 .07.15.15.17.08.56.16V0Zm0 0"/>
    <path id="v" d="m6.2-1.25-.17-.44 1.99-.8H.64v-.6h7.38l-1.99-.8.17-.44L9.02-3.1v.64Zm0 0"/>
    <path id="w" d="M4.38-6.03q0 .25-.07.58-.06.33-.12.51h-.24q0-.44-.1-.6a.3.3 0 0 0-.29-.18H1.48l.15-.44h2.6ZM3.7-3.45a4 4 0 0 1-.45.54 1 1 0 0 0-.36-.2 2 2 0 0 0-.6-.06H1.26l.1-.42h2.2ZM.25 0v-.2q.34-.07.52-.16.18-.07.18-.16v-5.12q0-.06-.18-.14a2 2 0 0 0-.52-.16v-.22h2.19v.22l-.49.08q-.22.05-.22.11v5.23q0 .07.2.15.18.07.66.17V0Zm0 0"/>
    <path id="x" d="M.34 0v-.2q.34-.07.52-.16.19-.07.19-.16v-5.12q0-.06-.2-.14a2 2 0 0 0-.5-.16v-.22h2.2v.22q-.33.07-.53.16t-.2.14v5.12q0 .07.18.16t.55.16V0Zm0 0"/>
    <path id="y" d="M4.53-4.81q0 .63-.31 1.04-.3.41-.83.63A3 3 0 0 1 1.67-3l-.03-.4.28.06h.25q.76 0 1.17-.35.43-.33.43-.98 0-.53-.4-.88-.39-.33-1.26-.34-.42 0-.9.06-.46.05-.96.13L.2-6q.46-.12.94-.2.5-.1 1.16-.1 1.12 0 1.67.42.56.43.56 1.07M5.56-.2q-.33.12-.62.19-.29.06-.47.06a1 1 0 0 1-.28-.08l-.2-.18-1.5-2.78.51-.33L4.63-.67q.15.2.35.26.21.05.54.02ZM.25 0v-.2q.34-.07.52-.16.18-.07.18-.16v-5.45h.78v5.45q0 .07.18.16t.53.16V0Zm0 0"/>
    <path id="z" d="m3.64-5.2-.17-.03a1.7 1.7 0 0 0-1.19-.58q-.36 0-.6.14a1 1 0 0 0-.32.34.7.7 0 0 0 .1.9q.25.24.59.41.34.18.73.36.38.2.74.43.35.23.57.57.24.34.24.82 0 .33-.14.67A2 2 0 0 1 2.16.14q-.33 0-.75-.12Q.99-.11.64-.33.61-.36.6-.5L.58-.84a5 5 0 0 1 .06-.74l.2.02q.22.57.64.86.44.26.94.26.3 0 .58-.15.28-.16.47-.43a1 1 0 0 0 .19-.56 1 1 0 0 0-.22-.65 2 2 0 0 0-.56-.46 8 8 0 0 0-.74-.34q-.39-.17-.73-.38a2 2 0 0 1-.57-.53 1.3 1.3 0 0 1-.21-.78q0-.24.09-.5.11-.29.34-.51.23-.25.6-.41.38-.15.9-.16.45 0 .86.13.42.13.6.33.04.03-.02.17a2 2 0 0 1-.36.47m0 0"/>
    <path id="A" d="M5.28-6.03q0 .25-.05.55-.03.3-.09.59h-.22q-.1-.45-.17-.64a.3.3 0 0 0-.28-.19H2.53l.14-.44h2.47Zm-4.44.31a.3.3 0 0 0-.17.06Q.6-5.6.5-5.42t-.23.56l-.22-.1.06-.6q.04-.35.1-.6h3.06l.14.44ZM1.5 0v-.2q.44-.1.63-.2.16-.1.17-.16v-5.19q0-.06-.2-.1l-.5-.09v-.22h2.18v.22l-.51.1q-.2.03-.2.09v5.19q0 .06.18.17.19.09.63.19V0Zm0 0"/>
    <path id="B" d="M5.44 0v-.2q.33-.07.54-.16.22-.07.22-.16l-.04-5.14.75-.26.04 5.4q0 .07.17.16.2.08.55.16V0Zm2.12-5.94q-.23 0-.51.11t-.52.28a1 1 0 0 0-.31.33L4.02 0H4a5 5 0 0 1-.1-1.03q.02-.15.07-.25l1.89-4.47q.12-.28.17-.34a.2.2 0 0 1 .14-.07h1.4ZM4.02-1.3q.07.16.09.43Q4.1-.61 4 0h-.22L1.55-5.19q-.13-.3-.35-.45-.23-.17-.45-.24-.24-.05-.4-.06v-.22h1.38q.11 0 .16.08l.16.33ZM.3 0v-.2q.33-.07.5-.16.2-.07.19-.16l.05-5.32.56-.13-.05 5.45q0 .07.17.16.19.08.54.16V0Zm0 0"/>
    <path id="C" d="M4.8-4.58q0 .52-.2.9a2 2 0 0 1-1.18.96 2 2 0 0 1-1.4-.05l-.11-.35q.19.09.37.12l.38.02q.3 0 .6-.16.33-.15.55-.45t.22-.79q0-.53-.25-.85-.23-.35-.65-.5t-.91-.16q-.52 0-1.02.06-.48.05-.95.13L.2-6q.48-.14 1.08-.22.63-.08 1.2-.08 1.06 0 1.7.46.61.44.62 1.26M.25 0v-.2q.34-.07.52-.16.18-.07.18-.16V-5.9h.78v5.4q0 .05.18.14.17.07.68.17V0Zm0 0"/>
    <path id="D" d="M6.22-5.94q-.31.07-.52.16-.18.08-.18.14v3.08a3 3 0 0 1-.61 2q-.6.7-1.66.7-.67 0-1.19-.25a2 2 0 0 1-.81-.75q-.3-.51-.3-1.31v-3.47q0-.06-.18-.14a2 2 0 0 0-.52-.16v-.22h2.19v.22q-.33.07-.52.16t-.19.14v3.23q0 .95.44 1.47t1.27.52q.46 0 .78-.28.33-.3.5-.72.17-.46.17-.94v-3.28q0-.06-.19-.14a2 2 0 0 0-.53-.16v-.22h2.05Zm0 0"/>
    <path id="E" d="M4.6-1.19A7 7 0 0 1 4.4 0H.26v-.2Q.6-.27.78-.36q.18-.07.18-.16v-5.12q0-.06-.18-.14a2 2 0 0 0-.52-.16v-.22h2.19v.22q-.33.07-.52.16t-.19.14V-.8q0 .17.2.27.18.1.71.1h.7q.3 0 .47-.05a.6.6 0 0 0 .31-.24q.15-.18.29-.56Zm0 0"/>
    <path id="F" d="M4.34-6.03a6 6 0 0 1-.2 1.1h-.22q-.01-.44-.12-.62a.3.3 0 0 0-.28-.17H1.48l.15-.44h2.56Zm-.5 2.58a2 2 0 0 1-.45.54 1 1 0 0 0-.36-.2 2 2 0 0 0-.6-.06H1.4l.1-.42h2.2Zm.82 2.26A7 7 0 0 1 4.46 0H.24v-.2q.34-.07.52-.16.18-.07.18-.16v-5.12q0-.06-.18-.14a2 2 0 0 0-.52-.16v-.22h2.19v.22q-.33.04-.52.08-.19.05-.19.11v5q0 .1.07.17a1 1 0 0 0 .28.11q.21.03.65.03h.63q.3 0 .48-.04a1 1 0 0 0 .33-.24q.15-.18.28-.56Zm0 0"/>
    <path id="G" d="M4.7-4.33q-.2.02-.39.08-.19.07-.39.22l-2 1.6-.39-.13 1.53-1.35q.22-.18.22-.26t-.12-.13l-.3-.03v-.22H4.7ZM.14 0v-.2l.5-.16q.2-.06.19-.16v-5.8q0-.3-.06-.41a.3.3 0 0 0-.2-.18q-.13-.04-.43-.07v-.2l.67-.15q.32-.1.56-.23l.2.15v6.9q0 .08.07.14l.45.17V0Zm4.74-.1a5 5 0 0 1-.9.15A1 1 0 0 1 3.66 0a1 1 0 0 1-.24-.2L1.55-2.56l.51-.38L4.1-.54q.15.15.3.21.17.04.45.03Zm0 0"/>
    <path id="H" d="M.34 0v-.2q.7-.15.7-.32v-2.75a3 3 0 0 0-.04-.5Q.97-3.93.83-4t-.49-.1v-.2L1-4.45q.35-.1.6-.24h.17v4.17q0 .07.15.16.16.08.52.16V0Zm0 0"/>
    <path id="I" d="M3.42-1.37q0 .52-.2.82t-.5.46-.56.18q-.29.05-.43.05a2 2 0 0 1-.56-.1A3 3 0 0 1 .52-.2Q.48-.23.47-.37V-.7l.01-.4q.03-.18.07-.27l.22.04q0 .42.36.7.35.3.85.29a.8.8 0 0 0 .57-.2.7.7 0 0 0 .23-.57.6.6 0 0 0-.12-.37q-.11-.15-.4-.32-.26-.17-.68-.39-.29-.15-.53-.31a2 2 0 0 1-.4-.4 1 1 0 0 1-.13-.52q0-.4.2-.69t.53-.42q.34-.15.7-.16a2.5 2.5 0 0 1 1.3.38q.04.03-.02.2-.04.15-.12.31L3-3.58l-.19-.04q-.23-.35-.48-.49-.26-.14-.5-.14a.7.7 0 0 0-.5.2.6.6 0 0 0-.19.4q0 .25.27.45.26.18.8.47.3.15.57.32.29.18.45.43.2.23.2.6m-.73 2.5q0 .35-.36.64-.34.27-1.14.4l-.11-.25q.51-.07.72-.25t.22-.33-.13-.23a1 1 0 0 0-.44-.1l.03-.09q.05-.1.13-.37l.26-.8h.38L2 .52q.27.05.47.18.21.15.22.43m0 0"/>
    <path id="J" d="M.34 0v-.2q.34-.07.52-.16.19-.07.19-.16v-5.12q0-.06-.2-.14a2 2 0 0 0-.5-.16v-.22h2.2v.22q-.33.07-.53.16t-.2.14v5.12q0 .07.18.16t.55.16V0Zm1.58-7.53q0 .28-.15.48a.5.5 0 0 1-.41.2q-.4 0-.4-.48a.7.7 0 0 1 .15-.47.5.5 0 0 1 .4-.18q.41 0 .41.45m0 0"/>
    <path id="K" d="m5.42-5.94-.5.08a.6.6 0 0 0-.33.22l-2.26 2.5h-.61l2.01-2.38q.22-.25.11-.3-.09-.09-.46-.12v-.22h2.04Zm.31 5.75q-.28.1-.57.17-.3.09-.54.08L4.37.02a.4.4 0 0 1-.2-.16l-2.45-3 .51-.38 2.58 2.9a.6.6 0 0 0 .4.23q.22.03.5 0ZM.25 0v-.2q.34-.07.52-.16.18-.07.18-.16v-5.12q0-.06-.18-.14a2 2 0 0 0-.52-.16v-.22h2.19v.22q-.33.07-.52.16t-.19.14v5.12q0 .07.18.16t.53.16V0Zm0 0"/>
    <path id="L" d="m3.64-5.2-.17-.03a1.7 1.7 0 0 0-1.19-.58q-.36 0-.6.14a1 1 0 0 0-.32.34.7.7 0 0 0 .1.9q.25.24.59.41.34.18.73.36.38.2.74.43.35.23.57.57.24.34.24.82 0 .33-.14.67A2 2 0 0 1 2.16.14q-.33 0-.75-.12Q.99-.11.64-.33.61-.36.6-.5L.58-.84a5 5 0 0 1 .06-.74l.2.02q.22.57.64.86.44.26.94.26.3 0 .58-.15.28-.16.47-.43a1 1 0 0 0 .19-.56 1 1 0 0 0-.22-.65 2 2 0 0 0-.56-.46 8 8 0 0 0-.74-.34q-.39-.17-.73-.38a2 2 0 0 1-.57-.53 1.3 1.3 0 0 1-.21-.78q0-.24.09-.5.11-.29.34-.51.23-.25.6-.41.38-.15.9-.16.45 0 .86.13.42.13.6.33.04.03-.02.17a2 2 0 0 1-.36.47m-.5 6.33q0 .35-.36.64-.34.27-1.14.4l-.1-.25q.5-.07.71-.25t.22-.33-.13-.23a1 1 0 0 0-.43-.1l.03-.09.12-.37.27-.8h.37l-.25.77q.27.05.47.18.22.15.22.43m0 0"/>
  </defs>
<rect width="100%" height="100%" fill="white" />
  <use xlink:href="#a" x="20.98" y="35.08"/>
  <use xlink:href="#b" x="33.74" y="35.08"/>
  <use xlink:href="#c" x="40.34" y="35.08"/>
  <use xlink:href="#d" x="48.48" y="35.08"/>
  <use xlink:href="#e" x="55.08" y="35.08"/>
  <use xlink:href="#f" x="65.73" y="35.08"/>
  <use xlink:href="#g" x="75.76" y="35.08"/>
  <use xlink:href="#h" x="86.76" y="35.08"/>
  <use xlink:href="#e" x="95.98" y="35.08"/>
  <use xlink:href="#i" x="20.98" y="47.08"/>
  <use xlink:href="#j" x="24.05" y="47.08"/>
  <use xlink:href="#k" x="28.67" y="47.08"/>
  <use xlink:href="#l" x="34.19" y="47.08"/>
  <use xlink:href="#m" x="39.49" y="47.08"/>
  <use xlink:href="#n" x="45.31" y="47.08"/>
  <use xlink:href="#o" x="49.27" y="47.08"/>
  <use xlink:href="#p" x="53.13" y="47.08"/>
  <use xlink:href="#q" x="58.81" y="47.08"/>
  <use xlink:href="#r" x="61.52" y="47.08"/>
  <use xlink:href="#s" x="69.55" y="47.08"/>
  <use xlink:href="#t" x="74.85" y="47.08"/>
  <use xlink:href="#u" x="80.15" y="47.08"/>
  <use xlink:href="#o" x="82.86" y="47.08"/>
  <use xlink:href="#j" x="86.72" y="47.08"/>
  <use xlink:href="#v" x="93.57" y="47.08"/>
  <use xlink:href="#w" x="105.44" y="47.08"/>
  <use xlink:href="#q" x="110.22" y="47.08"/>
  <use xlink:href="#n" x="112.93" y="47.08"/>
  <use xlink:href="#o" x="116.89" y="47.08"/>
  <use xlink:href="#p" x="120.75" y="47.08"/>
  <use xlink:href="#x" x="126.42" y="47.08"/>
  <use xlink:href="#r" x="129.4" y="47.08"/>
  <use xlink:href="#s" x="137.43" y="47.08"/>
  <use xlink:href="#t" x="142.73" y="47.08"/>
  <use xlink:href="#u" x="148.03" y="47.08"/>
  <use xlink:href="#o" x="150.74" y="47.08"/>
  <use xlink:href="#j" x="154.6" y="47.08"/>
  <use xlink:href="#i" x="20.98" y="59.08"/>
  <use xlink:href="#j" x="24.05" y="59.08"/>
  <use xlink:href="#k" x="28.67" y="59.08"/>
  <use xlink:href="#l" x="34.19" y="59.08"/>
  <use xlink:href="#w" x="39.49" y="59.08"/>
  <use xlink:href="#x" x="44.27" y="59.08"/>
  <use xlink:href="#y" x="47.25" y="59.08"/>
  <use xlink:href="#z" x="52.86" y="59.08"/>
  <use xlink:href="#A" x="57.62" y="59.08"/>
  <use xlink:href="#x" x="65.36" y="59.08"/>
  <use xlink:href="#B" x="68.34" y="59.08"/>
  <use xlink:href="#C" x="76.4" y="59.08"/>
  <use xlink:href="#D" x="81.63" y="59.08"/>
  <use xlink:href="#E" x="88.17" y="59.08"/>
  <use xlink:href="#z" x="92.93" y="59.08"/>
  <use xlink:href="#F" x="97.69" y="59.08"/>
  <use xlink:href="#v" x="104.87" y="59.08"/>
  <use xlink:href="#w" x="116.75" y="59.08"/>
  <use xlink:href="#q" x="121.53" y="59.08"/>
  <use xlink:href="#n" x="124.24" y="59.08"/>
  <use xlink:href="#o" x="128.2" y="59.08"/>
  <use xlink:href="#p" x="132.06" y="59.08"/>
  <use xlink:href="#x" x="137.73" y="59.08"/>
  <use xlink:href="#r" x="140.71" y="59.08"/>
  <use xlink:href="#s" x="148.74" y="59.08"/>
  <use xlink:href="#t" x="154.04" y="59.08"/>
  <use xlink:href="#u" x="159.34" y="59.08"/>
  <use xlink:href="#o" x="162.05" y="59.08"/>
  <use xlink:href="#j" x="165.91" y="59.08"/>
  <use xlink:href="#i" x="20.98" y="71.08"/>
  <use xlink:href="#p" x="24.05" y="71.08"/>
  <use xlink:href="#n" x="27.49" y="71.08"/>
  <use xlink:href="#l" x="31.45" y="71.08"/>
  <use xlink:href="#q" x="36.76" y="71.08"/>
  <use xlink:href="#u" x="39.47" y="71.08"/>
  <use xlink:href="#G" x="42.18" y="71.08"/>
  <use xlink:href="#H" x="49.3" y="71.08"/>
  <use xlink:href="#I" x="52.01" y="71.08"/>
  <use xlink:href="#H" x="55.87" y="71.08"/>
  <use xlink:href="#u" x="58.58" y="71.08"/>
  <use xlink:href="#p" x="61.29" y="71.08"/>
  <use xlink:href="#H" x="64.73" y="71.08"/>
  <use xlink:href="#v" x="69.67" y="71.08"/>
  <use xlink:href="#J" x="81.55" y="71.08"/>
  <use xlink:href="#u" x="84.53" y="71.08"/>
  <use xlink:href="#G" x="87.24" y="71.08"/>
  <use xlink:href="#x" x="94.35" y="71.08"/>
  <use xlink:href="#I" x="97.33" y="71.08"/>
  <use xlink:href="#H" x="101.19" y="71.08"/>
  <use xlink:href="#u" x="103.9" y="71.08"/>
  <use xlink:href="#p" x="106.61" y="71.08"/>
  <use xlink:href="#H" x="110.05" y="71.08"/>
  <use xlink:href="#i" x="20.98" y="83.08"/>
  <use xlink:href="#p" x="24.05" y="83.08"/>
  <use xlink:href="#n" x="27.49" y="83.08"/>
  <use xlink:href="#l" x="31.45" y="83.08"/>
  <use xlink:href="#J" x="36.76" y="83.08"/>
  <use xlink:href="#E" x="39.74" y="83.08"/>
  <use xlink:href="#K" x="44.5" y="83.08"/>
  <use xlink:href="#x" x="52.52" y="83.08"/>
  <use xlink:href="#L" x="55.5" y="83.08"/>
  <use xlink:href="#x" x="60.26" y="83.08"/>
  <use xlink:href="#E" x="63.23" y="83.08"/>
  <use xlink:href="#A" x="67.37" y="83.08"/>
  <use xlink:href="#x" x="72.87" y="83.08"/>
  <use xlink:href="#v" x="78.08" y="83.08"/>
  <use xlink:href="#J" x="89.96" y="83.08"/>
  <use xlink:href="#u" x="92.94" y="83.08"/>
  <use xlink:href="#G" x="95.65" y="83.08"/>
  <use xlink:href="#x" x="102.76" y="83.08"/>
  <use xlink:href="#I" x="105.74" y="83.08"/>
  <use xlink:href="#H" x="109.6" y="83.08"/>
  <use xlink:href="#u" x="112.31" y="83.08"/>
  <use xlink:href="#p" x="115.02" y="83.08"/>
  <use xlink:href="#H" x="118.46" y="83.08"/>
  <use xlink:href="#M" x="20.98" y="111.78"/>
  <use xlink:href="#N" x="32.18" y="111.78"/>
  <use xlink:href="#O" x="43.4" y="111.78"/>
  <use xlink:href="#e" x="58.74" y="111.78"/>
  <use xlink:href="#P" x="69.38" y="111.78"/>
  <use xlink:href="#f" x="78.81" y="111.78"/>
  <use xlink:href="#g" x="88.83" y="111.78"/>
  <use xlink:href="#h" x="99.82" y="111.78"/>
  <use xlink:href="#e" x="109.04" y="111.78"/>
  <use xlink:href="#i" x="20.98" y="123.78"/>
  <use xlink:href="#j" x="24.05" y="123.78"/>
  <use xlink:href="#k" x="28.67" y="123.78"/>
  <use xlink:href="#l" x="34.19" y="123.78"/>
  <use xlink:href="#m" x="39.49" y="123.78"/>
  <use xlink:href="#n" x="45.31" y="123.78"/>
  <use xlink:href="#o" x="49.27" y="123.78"/>
  <use xlink:href="#p" x="53.13" y="123.78"/>
  <use xlink:href="#q" x="58.81" y="123.78"/>
  <use xlink:href="#r" x="61.52" y="123.78"/>
  <use xlink:href="#s" x="69.55" y="123.78"/>
  <use xlink:href="#t" x="74.85" y="123.78"/>
  <use xlink:href="#u" x="80.15" y="123.78"/>
  <use xlink:href="#o" x="82.86" y="123.78"/>
  <use xlink:href="#j" x="86.72" y="123.78"/>
  <use xlink:href="#v" x="93.57" y="123.78"/>
  <use xlink:href="#m" x="105.44" y="123.78"/>
  <use xlink:href="#n" x="111.26" y="123.78"/>
  <use xlink:href="#o" x="115.22" y="123.78"/>
  <use xlink:href="#p" x="119.08" y="123.78"/>
  <use xlink:href="#q" x="124.75" y="123.78"/>
  <use xlink:href="#r" x="127.46" y="123.78"/>
  <use xlink:href="#s" x="135.49" y="123.78"/>
  <use xlink:href="#t" x="140.79" y="123.78"/>
  <use xlink:href="#u" x="146.09" y="123.78"/>
  <use xlink:href="#o" x="148.8" y="123.78"/>
  <use xlink:href="#j" x="152.66" y="123.78"/>
  <use xlink:href="#i" x="20.98" y="135.78"/>
  <use xlink:href="#j" x="24.05" y="135.78"/>
  <use xlink:href="#k" x="28.67" y="135.78"/>
  <use xlink:href="#l" x="34.19" y="135.78"/>
  <use xlink:href="#w" x="39.49" y="135.78"/>
  <use xlink:href="#x" x="44.27" y="135.78"/>
  <use xlink:href="#y" x="47.25" y="135.78"/>
  <use xlink:href="#z" x="52.86" y="135.78"/>
  <use xlink:href="#A" x="57.62" y="135.78"/>
  <use xlink:href="#x" x="65.36" y="135.78"/>
  <use xlink:href="#B" x="68.34" y="135.78"/>
  <use xlink:href="#C" x="76.4" y="135.78"/>
  <use xlink:href="#D" x="81.63" y="135.78"/>
  <use xlink:href="#E" x="88.17" y="135.78"/>
  <use xlink:href="#z" x="92.93" y="135.78"/>
  <use xlink:href="#F" x="97.69" y="135.78"/>
  <use xlink:href="#v" x="104.88" y="135.78"/>
  <use xlink:href="#m" x="116.75" y="135.78"/>
  <use xlink:href="#n" x="122.57" y="135.78"/>
  <use xlink:href="#o" x="126.53" y="135.78"/>
  <use xlink:href="#p" x="130.39" y="135.78"/>
  <use xlink:href="#q" x="136.06" y="135.78"/>
  <use xlink:href="#r" x="138.77" y="135.78"/>
  <use xlink:href="#s" x="146.8" y="135.78"/>
  <use xlink:href="#t" x="152.1" y="135.78"/>
  <use xlink:href="#u" x="157.4" y="135.78"/>
  <use xlink:href="#o" x="160.11" y="135.78"/>
  <use xlink:href="#j" x="163.97" y="135.78"/>
  <use xlink:href="#i" x="20.98" y="147.78"/>
  <use xlink:href="#p" x="24.05" y="147.78"/>
  <use xlink:href="#n" x="27.49" y="147.78"/>
  <use xlink:href="#l" x="31.45" y="147.78"/>
  <use xlink:href="#q" x="36.76" y="147.78"/>
  <use xlink:href="#u" x="39.47" y="147.78"/>
  <use xlink:href="#G" x="42.18" y="147.78"/>
  <use xlink:href="#H" x="49.3" y="147.78"/>
  <use xlink:href="#I" x="52.01" y="147.78"/>
  <use xlink:href="#H" x="55.87" y="147.78"/>
  <use xlink:href="#u" x="58.58" y="147.78"/>
  <use xlink:href="#p" x="61.29" y="147.78"/>
  <use xlink:href="#H" x="64.73" y="147.78"/>
  <use xlink:href="#v" x="69.67" y="147.78"/>
  <use xlink:href="#q" x="81.55" y="147.78"/>
  <use xlink:href="#u" x="84.26" y="147.78"/>
  <use xlink:href="#G" x="86.97" y="147.78"/>
  <use xlink:href="#H" x="94.08" y="147.78"/>
  <use xlink:href="#I" x="96.79" y="147.78"/>
  <use xlink:href="#H" x="100.65" y="147.78"/>
  <use xlink:href="#u" x="103.36" y="147.78"/>
  <use xlink:href="#p" x="106.07" y="147.78"/>
  <use xlink:href="#H" x="109.51" y="147.78"/>
  <use xlink:href="#i" x="20.98" y="159.78"/>
  <use xlink:href="#p" x="24.05" y="159.78"/>
  <use xlink:href="#n" x="27.49" y="159.78"/>
  <use xlink:href="#l" x="31.45" y="159.78"/>
  <use xlink:href="#J" x="36.76" y="159.78"/>
  <use xlink:href="#E" x="39.74" y="159.78"/>
  <use xlink:href="#K" x="44.5" y="159.78"/>
  <use xlink:href="#x" x="52.52" y="159.78"/>
  <use xlink:href="#L" x="55.5" y="159.78"/>
  <use xlink:href="#x" x="60.26" y="159.78"/>
  <use xlink:href="#E" x="63.23" y="159.78"/>
  <use xlink:href="#A" x="67.37" y="159.78"/>
  <use xlink:href="#x" x="72.87" y="159.78"/>
  <use xlink:href="#v" x="78.08" y="159.78"/>
  <use xlink:href="#q" x="89.96" y="159.78"/>
  <use xlink:href="#u" x="92.67" y="159.78"/>
  <use xlink:href="#G" x="95.38" y="159.78"/>
  <use xlink:href="#H" x="102.49" y="159.78"/>
  <use xlink:href="#I" x="105.2" y="159.78"/>
  <use xlink:href="#H" x="109.06" y="159.78"/>
  <use xlink:href="#u" x="111.77" y="159.78"/>
  <use xlink:href="#p" x="114.48" y="159.78"/>
  <use xlink:href="#H" x="117.92" y="159.78"/>
  <use xlink:href="#Q" x="20.98" y="188.48"/>
  <use xlink:href="#R" x="35.68" y="188.48"/>
  <use xlink:href="#R" x="47.98" y="188.48"/>
  <use xlink:href="#e" x="60.28" y="188.48"/>
  <use xlink:href="#P" x="70.93" y="188.48"/>
  <use xlink:href="#f" x="80.36" y="188.48"/>
  <use xlink:href="#g" x="90.38" y="188.48"/>
  <use xlink:href="#h" x="101.37" y="188.48"/>
  <use xlink:href="#e" x="110.59" y="188.48"/>
  <use xlink:href="#i" x="20.98" y="202.45"/>
  <use xlink:href="#j" x="24.05" y="202.45"/>
  <use xlink:href="#k" x="28.67" y="202.45"/>
  <use xlink:href="#l" x="34.19" y="202.45"/>
  <use xlink:href="#m" x="39.49" y="202.45"/>
  <use xlink:href="#n" x="45.31" y="202.45"/>
  <use xlink:href="#o" x="49.27" y="202.45"/>
  <use xlink:href="#p" x="53.13" y="202.45"/>
  <use xlink:href="#q" x="58.81" y="202.45"/>
  <use xlink:href="#r" x="61.52" y="202.45"/>
  <use xlink:href="#s" x="69.55" y="202.45"/>
  <use xlink:href="#t" x="74.85" y="202.45"/>
  <use xlink:href="#u" x="80.15" y="202.45"/>
  <use xlink:href="#o" x="82.86" y="202.45"/>
  <use xlink:href="#j" x="86.72" y="202.45"/>
  <use xlink:href="#v" x="93.56" y="202.45"/>
  <use xlink:href="#w" x="105.43" y="202.45"/>
  <use xlink:href="#x" x="110.21" y="202.45"/>
  <use xlink:href="#y" x="113.19" y="202.45"/>
  <use xlink:href="#z" x="118.8" y="202.45"/>
  <use xlink:href="#A" x="123.56" y="202.45"/>
  <use xlink:href="#x" x="131.3" y="202.45"/>
  <use xlink:href="#B" x="134.28" y="202.45"/>
  <use xlink:href="#C" x="142.34" y="202.45"/>
  <use xlink:href="#D" x="147.57" y="202.45"/>
  <use xlink:href="#E" x="154.11" y="202.45"/>
  <use xlink:href="#z" x="158.87" y="202.45"/>
  <use xlink:href="#F" x="163.63" y="202.45"/>
  <use xlink:href="#i" x="20.98" y="214.45"/>
  <use xlink:href="#j" x="24.05" y="214.45"/>
  <use xlink:href="#k" x="28.67" y="214.45"/>
  <use xlink:href="#l" x="34.19" y="214.45"/>
  <use xlink:href="#w" x="39.49" y="214.45"/>
  <use xlink:href="#x" x="44.27" y="214.45"/>
  <use xlink:href="#y" x="47.25" y="214.45"/>
  <use xlink:href="#z" x="52.86" y="214.45"/>
  <use xlink:href="#A" x="57.62" y="214.45"/>
  <use xlink:href="#x" x="65.36" y="214.45"/>
  <use xlink:href="#B" x="68.34" y="214.45"/>
  <use xlink:href="#C" x="76.4" y="214.45"/>
  <use xlink:href="#D" x="81.63" y="214.45"/>
  <use xlink:href="#E" x="88.17" y="214.45"/>
  <use xlink:href="#z" x="92.93" y="214.45"/>
  <use xlink:href="#F" x="97.69" y="214.45"/>
  <use xlink:href="#v" x="104.87" y="214.45"/>
  <use xlink:href="#w" x="116.74" y="214.45"/>
  <use xlink:href="#x" x="121.52" y="214.45"/>
  <use xlink:href="#y" x="124.5" y="214.45"/>
  <use xlink:href="#z" x="130.11" y="214.45"/>
  <use xlink:href="#A" x="134.87" y="214.45"/>
  <use xlink:href="#x" x="142.61" y="214.45"/>
  <use xlink:href="#B" x="145.59" y="214.45"/>
  <use xlink:href="#C" x="153.65" y="214.45"/>
  <use xlink:href="#D" x="158.88" y="214.45"/>
  <use xlink:href="#E" x="165.42" y="214.45"/>
  <use xlink:href="#z" x="170.18" y="214.45"/>
  <use xlink:href="#F" x="174.94" y="214.45"/>
  <use xlink:href="#i" x="20.98" y="226.45"/>
  <use xlink:href="#p" x="24.05" y="226.45"/>
  <use xlink:href="#n" x="27.49" y="226.45"/>
  <use xlink:href="#l" x="31.45" y="226.45"/>
  <use xlink:href="#q" x="36.76" y="226.45"/>
  <use xlink:href="#u" x="39.47" y="226.45"/>
  <use xlink:href="#G" x="42.18" y="226.45"/>
  <use xlink:href="#H" x="49.29" y="226.45"/>
  <use xlink:href="#I" x="52" y="226.45"/>
  <use xlink:href="#H" x="55.86" y="226.45"/>
  <use xlink:href="#u" x="58.57" y="226.45"/>
  <use xlink:href="#p" x="61.28" y="226.45"/>
  <use xlink:href="#H" x="64.72" y="226.45"/>
  <use xlink:href="#v" x="69.67" y="226.45"/>
  <use xlink:href="#J" x="81.55" y="226.45"/>
  <use xlink:href="#E" x="84.53" y="226.45"/>
  <use xlink:href="#K" x="89.29" y="226.45"/>
  <use xlink:href="#x" x="97.3" y="226.45"/>
  <use xlink:href="#L" x="100.28" y="226.45"/>
  <use xlink:href="#x" x="105.04" y="226.45"/>
  <use xlink:href="#E" x="108.02" y="226.45"/>
  <use xlink:href="#A" x="112.15" y="226.45"/>
  <use xlink:href="#x" x="117.66" y="226.45"/>
  <use xlink:href="#i" x="20.98" y="238.45"/>
  <use xlink:href="#p" x="24.05" y="238.45"/>
  <use xlink:href="#n" x="27.49" y="238.45"/>
  <use xlink:href="#l" x="31.45" y="238.45"/>
  <use xlink:href="#J" x="36.76" y="238.45"/>
  <use xlink:href="#E" x="39.74" y="238.45"/>
  <use xlink:href="#K" x="44.5" y="238.45"/>
  <use xlink:href="#x" x="52.52" y="238.45"/>
  <use xlink:href="#L" x="55.49" y="238.45"/>
  <use xlink:href="#x" x="60.25" y="238.45"/>
  <use xlink:href="#E" x="63.23" y="238.45"/>
  <use xlink:href="#A" x="67.36" y="238.45"/>
  <use xlink:href="#x" x="72.87" y="238.45"/>
  <use xlink:href="#v" x="78.08" y="238.45"/>
  <use xlink:href="#J" x="89.96" y="238.45"/>
  <use xlink:href="#E" x="92.94" y="238.45"/>
  <use xlink:href="#K" x="97.7" y="238.45"/>
  <use xlink:href="#x" x="105.71" y="238.45"/>
  <use xlink:href="#L" x="108.69" y="238.45"/>
  <use xlink:href="#x" x="113.45" y="238.45"/>
  <use xlink:href="#E" x="116.43" y="238.45"/>
  <use xlink:href="#A" x="120.56" y="238.45"/>
  <use xlink:href="#x" x="126.07" y="238.45"/>
  <use xlink:href="#S" x="20.98" y="267.48"/>
  <use xlink:href="#e" x="32.27" y="267.48"/>
  <use xlink:href="#T" x="42.91" y="267.48"/>
  <use xlink:href="#c" x="55.7" y="267.48"/>
  <use xlink:href="#e" x="63.84" y="267.48"/>
  <use xlink:href="#T" x="74.48" y="267.48"/>
  <use xlink:href="#f" x="87.27" y="267.48"/>
  <use xlink:href="#e" x="97.3" y="267.48"/>
  <use xlink:href="#f" x="107.95" y="267.48"/>
  <use xlink:href="#g" x="117.98" y="267.48"/>
  <use xlink:href="#h" x="128.98" y="267.48"/>
  <use xlink:href="#e" x="138.2" y="267.48"/>
  <use xlink:href="#i" x="20.98" y="279.48"/>
  <use xlink:href="#j" x="24.05" y="279.48"/>
  <use xlink:href="#k" x="28.67" y="279.48"/>
  <use xlink:href="#l" x="34.19" y="279.48"/>
  <use xlink:href="#m" x="39.49" y="279.48"/>
  <use xlink:href="#n" x="45.31" y="279.48"/>
  <use xlink:href="#o" x="49.27" y="279.48"/>
  <use xlink:href="#p" x="53.13" y="279.48"/>
  <use xlink:href="#q" x="58.81" y="279.48"/>
  <use xlink:href="#r" x="61.52" y="279.48"/>
  <use xlink:href="#s" x="69.55" y="279.48"/>
  <use xlink:href="#t" x="74.85" y="279.48"/>
  <use xlink:href="#u" x="80.15" y="279.48"/>
  <use xlink:href="#o" x="82.86" y="279.48"/>
  <use xlink:href="#j" x="86.72" y="279.48"/>
  <use xlink:href="#v" x="93.57" y="279.48"/>
  <use xlink:href="#w" x="105.44" y="279.48"/>
  <use xlink:href="#q" x="110.22" y="279.48"/>
  <use xlink:href="#n" x="112.93" y="279.48"/>
  <use xlink:href="#o" x="116.89" y="279.48"/>
  <use xlink:href="#p" x="120.75" y="279.48"/>
  <use xlink:href="#q" x="126.42" y="279.48"/>
  <use xlink:href="#r" x="129.13" y="279.48"/>
  <use xlink:href="#s" x="137.16" y="279.48"/>
  <use xlink:href="#t" x="142.46" y="279.48"/>
  <use xlink:href="#u" x="147.76" y="279.48"/>
  <use xlink:href="#o" x="150.47" y="279.48"/>
  <use xlink:href="#j" x="154.33" y="279.48"/>
  <use xlink:href="#i" x="20.98" y="291.48"/>
  <use xlink:href="#j" x="24.05" y="291.48"/>
  <use xlink:href="#k" x="28.67" y="291.48"/>
  <use xlink:href="#l" x="34.19" y="291.48"/>
  <use xlink:href="#w" x="39.49" y="291.48"/>
  <use xlink:href="#x" x="44.27" y="291.48"/>
  <use xlink:href="#y" x="47.25" y="291.48"/>
  <use xlink:href="#z" x="52.86" y="291.48"/>
  <use xlink:href="#A" x="57.62" y="291.48"/>
  <use xlink:href="#x" x="65.36" y="291.48"/>
  <use xlink:href="#B" x="68.34" y="291.48"/>
  <use xlink:href="#C" x="76.4" y="291.48"/>
  <use xlink:href="#D" x="81.63" y="291.48"/>
  <use xlink:href="#E" x="88.17" y="291.48"/>
  <use xlink:href="#z" x="92.93" y="291.48"/>
  <use xlink:href="#F" x="97.69" y="291.48"/>
  <use xlink:href="#v" x="104.88" y="291.48"/>
  <use xlink:href="#w" x="116.75" y="291.48"/>
  <use xlink:href="#q" x="121.53" y="291.48"/>
  <use xlink:href="#n" x="124.24" y="291.48"/>
  <use xlink:href="#o" x="128.2" y="291.48"/>
  <use xlink:href="#p" x="132.06" y="291.48"/>
  <use xlink:href="#q" x="137.73" y="291.48"/>
  <use xlink:href="#r" x="140.44" y="291.48"/>
  <use xlink:href="#s" x="148.47" y="291.48"/>
  <use xlink:href="#t" x="153.77" y="291.48"/>
  <use xlink:href="#u" x="159.07" y="291.48"/>
  <use xlink:href="#o" x="161.78" y="291.48"/>
  <use xlink:href="#j" x="165.64" y="291.48"/>
  <use xlink:href="#i" x="20.98" y="303.48"/>
  <use xlink:href="#p" x="24.05" y="303.48"/>
  <use xlink:href="#n" x="27.49" y="303.48"/>
  <use xlink:href="#l" x="31.45" y="303.48"/>
  <use xlink:href="#q" x="36.76" y="303.48"/>
  <use xlink:href="#u" x="39.47" y="303.48"/>
  <use xlink:href="#G" x="42.18" y="303.48"/>
  <use xlink:href="#H" x="49.3" y="303.48"/>
  <use xlink:href="#I" x="52.01" y="303.48"/>
  <use xlink:href="#H" x="55.87" y="303.48"/>
  <use xlink:href="#u" x="58.58" y="303.48"/>
  <use xlink:href="#p" x="61.29" y="303.48"/>
  <use xlink:href="#H" x="64.73" y="303.48"/>
  <use xlink:href="#v" x="69.67" y="303.48"/>
  <use xlink:href="#J" x="81.55" y="303.48"/>
  <use xlink:href="#u" x="84.53" y="303.48"/>
  <use xlink:href="#G" x="87.24" y="303.48"/>
  <use xlink:href="#H" x="94.35" y="303.48"/>
  <use xlink:href="#I" x="97.06" y="303.48"/>
  <use xlink:href="#H" x="100.92" y="303.48"/>
  <use xlink:href="#u" x="103.63" y="303.48"/>
  <use xlink:href="#p" x="106.34" y="303.48"/>
  <use xlink:href="#H" x="109.78" y="303.48"/>
  <use xlink:href="#i" x="20.98" y="315.48"/>
  <use xlink:href="#p" x="24.05" y="315.48"/>
  <use xlink:href="#n" x="27.49" y="315.48"/>
  <use xlink:href="#l" x="31.45" y="315.48"/>
  <use xlink:href="#J" x="36.76" y="315.48"/>
  <use xlink:href="#E" x="39.74" y="315.48"/>
  <use xlink:href="#K" x="44.5" y="315.48"/>
  <use xlink:href="#x" x="52.52" y="315.48"/>
  <use xlink:href="#L" x="55.5" y="315.48"/>
  <use xlink:href="#x" x="60.26" y="315.48"/>
  <use xlink:href="#E" x="63.23" y="315.48"/>
  <use xlink:href="#A" x="67.37" y="315.48"/>
  <use xlink:href="#x" x="72.87" y="315.48"/>
  <use xlink:href="#v" x="78.08" y="315.48"/>
  <use xlink:href="#J" x="89.96" y="315.48"/>
  <use xlink:href="#u" x="92.94" y="315.48"/>
  <use xlink:href="#G" x="95.65" y="315.48"/>
  <use xlink:href="#H" x="102.76" y="315.48"/>
  <use xlink:href="#I" x="105.47" y="315.48"/>
  <use xlink:href="#H" x="109.33" y="315.48"/>
  <use xlink:href="#u" x="112.04" y="315.48"/>
  <use xlink:href="#p" x="114.75" y="315.48"/>
  <use xlink:href="#H" x="118.19" y="315.48"/>
</svg>
