<svg xmlns="http://www.w3.org/2000/svg" xmlns:xlink="http://www.w3.org/1999/xlink" width="340.16" height="113.39">
  <defs>
    <path id="a" d="m4.22-4.62-1.03 3.1q-.12.34.25.49t1.25.25V0H0v-.78q.73-.12 1.13-.27.38-.15.5-.47l3.75-11.45q.5-.43 1.15-.72.67-.3 1.22-.45l4.52 12.62q.11.3.37.47.27.17.95.27V0H8.27v-.78Q9.09-.84 9.39-1q.3-.15.19-.52l-1.11-3.1Zm3.81-1.29-1.78-5-1.6 5Zm0 0"/>
    <path id="b" d="M.56 0v-.78a5 5 0 0 0 1.24-.33q.3-.15.3-.33v-12.15q0-.64-.12-.93a.6.6 0 0 0-.4-.36q-.3-.08-.9-.17v-.75q1.07-.14 1.87-.32.81-.19 1.67-.54l.45.46v14.76q0 .16.33.33t1.2.33V0Zm0 0"/>
    <path id="c" d="M8.73 0v-.78q1.47-.3 1.47-.66v-10.64q0-.14-.36-.33-.35-.18-1.1-.34v-.78h5.64v.78q-1.5.31-1.49.67v10.64q0 .13.34.31.36.2 1.14.35V0ZM4.31-6.45v-1.28h6.11v1.28ZM.47 0v-.78q1.47-.3 1.47-.66v-10.64q0-.14-.36-.33-.34-.18-1.11-.34v-.78H6.1v.78q-1.5.31-1.49.67v10.64q0 .13.35.31.34.2 1.14.35V0Zm0 0"/>
    <path id="d" d="M9.95-5.9q-.2.21-.68.48-.49.26-.83.39H1.95l.03-1.2h4.99q.24 0 .33-.08.08-.08.08-.32 0-.41-.18-.98-.15-.56-.58-.98a1.5 1.5 0 0 0-1.14-.44Q4.31-9.03 3.83-8a7 7 0 0 0-.47 2.73q0 1.64.69 2.72a2.3 2.3 0 0 0 2.01 1.07q.45 0 .88-.08t.98-.36q.57-.28 1.4-.86.15.08.34.34l.23.35q-1 1.01-1.75 1.53a4.6 4.6 0 0 1-2.98.89q-1.23 0-2.24-.64A4.6 4.6 0 0 1 1.3-2.1Q.7-3.23.7-4.75a5.3 5.3 0 0 1 3.57-5.27q.8-.3 1.6-.3 1.4 0 2.3.63t1.35 1.63q.42 1 .43 2.15m0 0"/>
    <path id="e" d="M10.92-1.2A13 13 0 0 1 8.5.1a2 2 0 0 1-.8.23q-.44 0-.73-.56-.28-.58-.28-1.54v-5.6q0-.68-.3-1.11-.28-.45-1.1-.44-.51 0-.96.37t-.4 1q.03.12-.35.27-.36.15-.9.31-.51.14-.96.24-.45.08-.56.04l-.24-.58q.35-.84 1.19-1.53a6.7 6.7 0 0 1 4.3-1.51q1.47 0 2.17.75.69.73.69 1.83v5.17q0 .84.43.84.14 0 .35-.06t.62-.24ZM6.8-5.08q-1.35.23-1.9.42-.57.2-.85.5t-.46.61q-.17.32-.17.77 0 .74.36.98t.64.24q.42 0 .97-.24.56-.23 1.4-.98l.1 1.2a6 6 0 0 1-2.01 1.5q-1 .4-1.74.4-.58 0-1.16-.27a2 2 0 0 1-.92-.82A2.5 2.5 0 0 1 .7-2.16q0-.73.27-1.23.26-.51.66-.92.35-.35.87-.66.53-.3 1.53-.6 1-.29 2.77-.57Zm0 0"/>
    <path id="f" d="M12.25-1.22A12 12 0 0 1 9.77.11a2 2 0 0 1-.7.22Q7.98.33 8-3.25v-10.1q0-.8-.08-1.18-.06-.38-.37-.5a4 4 0 0 0-1.02-.19v-.73q1.17-.14 2.13-.32.95-.2 1.51-.39l.4.41v13.03q0 .77.07 1.06.06.3.19.38.12.08.33.05.2-.03.8-.29ZM8.8-2.32q-.88.96-1.53 1.54a5 5 0 0 1-1.25.84 3.4 3.4 0 0 1-3.25-.34q-.9-.6-1.49-1.75A6 6 0 0 1 .7-4.77q0-1.43.66-2.7A5.5 5.5 0 0 1 3.2-9.52a4.8 4.8 0 0 1 4.02-.57q.66.2 1.5.98 0 1.27-.64 1.64-.4-.67-.99-1.05-.6-.37-1.34-.37-1.06 0-1.77.84-.7.86-.7 2.7 0 1.13.36 1.94t.92 1.25 1.16.44q.63 0 1.23-.36t1.38-1.1q.07.03.17.23a4 4 0 0 1 .3.64m0 0"/>
    <path id="g" d="M5.08-13.55q0 .72-.52 1.2-.51.45-1.28.44-.6 0-1.05-.3-.42-.3-.42-.9 0-.73.52-1.17.51-.45 1.26-.45.58 0 1.04.28.45.28.45.9M.68 0v-.78q.7-.15 1.05-.33t.36-.33v-5.53q0-.71-.06-1.08-.04-.37-.36-.51-.3-.15-1-.22v-.77q.93-.12 1.75-.3.82-.2 1.56-.46h.7v8.87q0 .13.3.31.33.2 1.13.35V0Zm0 0"/>
    <path id="h" d="M7.13 0v-.78q.75-.2 1.09-.36.33-.15.33-.3V-6.3q0-1.2-.25-1.61-.25-.45-.9-.44-.51 0-1.18.31-.68.3-1.7 1.2v5.41q0 .36 1.42.66V0H.52v-.78q1.42-.37 1.42-.66V-7.4q0-.54-.06-.8-.08-.27-.36-.38-.3-.1-1-.2v-.76a13 13 0 0 0 3.39-.76l.43.45.13 1.55A10 10 0 0 1 6.8-9.84a5 5 0 0 1 1.94-.47q.92 0 1.64.62.73.63.73 2.13v6.12q0 .15.29.3.3.14 1.14.36V0Zm0 0"/>
    <path id="i" d="M11.16 1.13q0 .75-.5 1.5-.51.75-1.35 1.34a7 7 0 0 1-3.89 1.31q-.84 0-1.76-.16-.91-.15-1.7-.51a4 4 0 0 1-1.3-.9 2 2 0 0 1-.5-1.33q0-.4.26-.82Q.7 1.14 1.44.6 2.19.06 3.59-.66l.3.04q.3 0 .61.09.33.05.36.2Q3.86.27 3.4.7q-.44.42-.57.72-.1.3-.1.53 0 .48.45.9.44.41 1.23.67.78.25 1.75.25 1.27 0 1.86-.6.6-.58.61-1.33a1 1 0 0 0-.19-.54A2 2 0 0 0 7.7.8 8 8 0 0 0 5.97.44Q3.87.17 2.75-.31q-1.1-.5-1.1-1.02-.01-.24.5-.84.48-.6 1.74-1.4l1.94-.2q-.92.66-1.16 1.04-.22.37-.22.46 0 .13.14.25.14.13.64.25.53.14 1.64.27 1.68.2 2.6.55.93.34 1.31.86.38.51.38 1.22m.2-11.05q-.08.25-.27.62-.17.37-.34.61-.6.12-1.23.17t-1.55 0l-.42-.98q1.1-.07 2.06-.34l1.44-.47ZM9.64-6.9q0 1.09-.62 1.94-.61.85-1.63 1.3-1.02.48-2.2.48-1.23 0-2.19-.4a4 4 0 0 1-1.53-1.15A3 3 0 0 1 .9-6.47q0-1.04.65-1.92a5.2 5.2 0 0 1 4.06-1.92q1.15 0 2.07.47T9.12-8.6q.52.75.52 1.7m-2.47.44q0-1.08-.58-1.85a1.9 1.9 0 0 0-1.64-.78q-.53 0-1.04.5-.52.51-.52 1.5 0 1.08.53 1.86.53.77 1.69.77.62 0 1.1-.49.45-.5.46-1.51m0 0"/>
    <path id="j" d="M8.4-3.05q0 1.14-.48 1.83-.48.68-1.19 1.02-.7.33-1.42.42-.7.1-1.17.1-.68 0-1.58-.18a5 5 0 0 1-1.6-.6Q.92-.5.87-.85A9 9 0 0 1 .89-2.7a5 5 0 0 1 .16-.9l.86.12q.23 1.14.95 1.8.73.69 1.66.68 1.5 0 1.51-1.2 0-.82-.75-1.36-.74-.53-1.83-1.1-.6-.3-1.17-.7a4 4 0 0 1-.95-.89 2 2 0 0 1-.38-1.19q0-.9.55-1.53.54-.63 1.42-.98.9-.36 1.86-.36.92 0 1.83.23.9.22 1.4.6.06.04.02.36-.03.3-.14.68a6 6 0 0 1-.5 1.28l-.73-.07q-.56-1.96-2-1.96-.65 0-1 .31a1 1 0 0 0-.35.74q0 .64.6 1.06T5.77-6q.62.32 1.23.7.6.38 1 .92t.4 1.33m0 0"/>
    <path id="k" d="M18.6-12.75a7 7 0 0 0-1.27.34q-.33.16-.36.33L14.52-.64a.8.8 0 0 1-.36.52q-.3.18-.66.28l-.56.17-3.66-9.75L6.2-.64a1.1 1.1 0 0 1-.72.66q-.55.2-1 .3L1.7-12q-.06-.27-.39-.44a4 4 0 0 0-1.1-.31v-.78h5.26v.78q-.7.06-1 .19-.3.1-.36.26-.05.15-.02.3l1.85 7.86 3.12-9.4h1.08l3.6 9.4 1.73-7.94q.04-.25-.45-.4-.5-.16-1.2-.27v-.78h4.79Zm0 0"/>
    <path id="l" d="M12.13-3.83q0 1.83-1.49 2.9A7 7 0 0 1 6.58.17q-.72 0-1.66-.04L3.03.07 1.33 0l3.19-1.3q.31.18.75.24a6 6 0 0 0 .9.06q1.54 0 2.35-.7.8-.72.8-1.92 0-.8-.3-1.54-.3-.73-1-1.21a3.4 3.4 0 0 0-1.96-.49 8 8 0 0 0-2.01.24l-.11-1.33h.89q1.41 0 2.15-.36.74-.37.99-.94t.25-1.19q0-1.05-.69-1.67-.69-.6-2.53-.6-.56 0-1.4.05a53 53 0 0 0-3.13.35l-.14-.9q.62-.16 1.55-.3a29 29 0 0 1 3.8-.35q2.46 0 3.85.78 1.4.77 1.4 2.13 0 1.14-.62 1.98-.62.83-1.83 1.2 1.08.18 1.9.74.82.55 1.28 1.37.46.84.46 1.83M.46 0v-.78q1.47-.3 1.47-.66V-13l2.69-.22v11.86q0 .14.26.33.26.18 1.05.33V0Zm0 0"/>
    <path id="m" d="M12.36-13.19q0 .36-.08.92a24 24 0 0 1-.33 2.18h-.8q-.2-1-.34-1.58-.12-.58-.58-.58h-3.3l.32-1.28h4.7Zm-10.19.94q-.33 0-.6.5-.28.48-.76 1.75l-.78-.3a36 36 0 0 1 .27-2.25q.08-.6.17-.98h5.12l.13 1.28ZM3.22 0v-.78a5 5 0 0 0 1.34-.4q.35-.23.35-.38v-10.77q0-.12-.32-.19l-1.09-.23v-.78h5.63v.78q-.72.15-1.15.22-.4.05-.4.2v10.77q0 .14.34.36t1.35.42V0Zm0 0"/>
    <path id="n" d="M7.9-1.67Q6.5-.63 5.49-.16a4 4 0 0 1-1.54.49Q3 .33 2.34-.4t-.67-2.23v-6.02H.36l-.31-.4.84-.94h.78v-2.25l2.16-1.61.42.36v3.5h3.27l.39.37q-.2.38-.55.78-.33.4-.53.56-.27-.13-.78-.25-.52-.12-1.08-.12h-.72v5.02q0 1.1.25 1.54.24.45.66.44.38 0 .87-.16.5-.17 1.4-.65Zm0 0"/>
    <path id="o" d="M9.6-2.05A9 9 0 0 1 7.9-.48a4.4 4.4 0 0 1-2.74.8q-1.18 0-2.2-.6a4.5 4.5 0 0 1-1.63-1.75A5.6 5.6 0 0 1 .7-4.77a5.4 5.4 0 0 1 2.78-4.8 6 6 0 0 1 4.1-.63q.62.1 1.15.3.54.18.77.43.03.14-.06.53-.09.4-.24.86l-.3.88q-.15.4-.24.54l-.72-.1a5 5 0 0 0-.88-1.63q-.51-.58-1.37-.58a2 2 0 0 0-1.17.4 2.6 2.6 0 0 0-.9 1.23 6 6 0 0 0-.34 2.23q0 1.73.81 2.67.83.96 2 .96.41 0 .79-.08.37-.07.87-.33a10 10 0 0 0 1.27-.84Zm0 0"/>
    <path id="p" d="M1.86-2.17 1.3-.55q-.05.16.13.24.18.06.6.1V0H0v-.2q.34-.06.52-.13.2-.06.25-.22l1.82-5.5q.1-.1.27-.2l.3-.19L5.2-.54q.05.14.2.21.12.09.44.13V0H3.8v-.2q.38-.03.51-.1.15-.07.1-.25l-.55-1.62Zm1.84-.44-.86-2.51L2-2.61Zm0 0"/>
    <path id="q" d="M5.8 0v-.2q.66-.19.67-.32v-2.57q0-.6-.13-.8-.12-.22-.42-.22-.33 0-.72.36-.39.35-.76.95v2.28q0 .08.15.15l.54.17V0h-2.1v-.2q.69-.19.69-.32v-2.57q0-.6-.13-.8-.12-.22-.43-.22-.33 0-.7.36-.37.35-.77.95v2.28q0 .09.19.16.18.08.5.16V0H.27v-.2l.5-.16q.18-.07.18-.16v-2.95q0-.26-.04-.37a.3.3 0 0 0-.18-.18L.27-4.1v-.19a4 4 0 0 0 1.17-.39l.17.17.06 1.11q.42-.63.88-.95.46-.33.8-.33.48 0 .77.25.32.25.32.9v.1q.42-.6.87-.92t.82-.33q.45 0 .76.27.3.25.31.8v3.1q0 .08.14.15l.55.17V0Zm0 0"/>
    <path id="r" d="M4.52-.4q-.41.28-.7.4a1 1 0 0 1-.4.14q-.17 0-.28-.25a2 2 0 0 1-.1-.69v-2.62a1 1 0 0 0-.17-.56q-.17-.24-.65-.22-.31.01-.58.2a.5.5 0 0 0-.22.47q.02.04-.17.12-.18.09-.37.13a1 1 0 0 1-.29.03l-.06-.2q.15-.33.49-.61.35-.28.8-.46.42-.16.84-.17.53 0 .82.28.3.29.3.79v2.75q0 .39.19.39.06 0 .17-.04l.31-.1Zm-1.43-2q-.55.1-.87.2-.31.08-.49.18-.16.1-.26.2-.12.15-.2.3a1 1 0 0 0-.08.4q0 .25.1.4.08.13.21.19.14.05.22.05.29 0 .64-.16.34-.17.73-.52l.04.36q-.46.51-.91.72-.45.22-.78.22-.24 0-.49-.1a1 1 0 0 1-.4-.34Q.4-.53.39-.9q0-.38.13-.63.14-.25.3-.42t.4-.3q.24-.14.67-.27.44-.12 1.2-.23Zm0 0"/>
    <path id="s" d="M3.27 0v-.2q.68-.19.68-.32v-2.57q0-.6-.14-.77t-.48-.19q-.3 0-.74.32-.43.3-.9 1.04v2.17q0 .09.19.16.18.08.5.16V0H.27v-.2l.5-.16q.18-.07.18-.16v-2.95q0-.25-.03-.37-.03-.13-.19-.18L.27-4.1v-.19a4 4 0 0 0 1.17-.39l.17.17.06 1.22q.28-.44.63-.75.36-.3.7-.47.36-.16.6-.17.44 0 .76.27.33.25.33.8v3.1q0 .08.14.15t.54.17V0Zm0 0"/>
    <path id="t" d="M5.22-.4q-.36.23-.66.38-.3.16-.4.16-.17 0-.29-.22-.1-.23-.14-.73-.4.4-.71.6A2 2 0 0 1 2 .15q-.31 0-.58-.12a1 1 0 0 1-.44-.44Q.83-.75.83-1.36v-2.1q0-.32-.03-.45a.3.3 0 0 0-.18-.18 2 2 0 0 0-.42-.08v-.19a4 4 0 0 0 1.22-.33l.14.19v2.88q0 .67.19.93.2.25.56.25.32 0 .66-.18.34-.21.76-.66v-2.19q0-.3-.04-.44a.3.3 0 0 0-.19-.18q-.15-.06-.45-.08v-.19q.36-.05.67-.14.33-.09.6-.19l.15.19v3.27l.01.48q.04.19.1.23.05.06.2.04.14-.03.4-.15Zm0 0"/>
    <path id="u" d="M.3 0v-.2q.42-.07.57-.16.15-.07.16-.16v-5.8q0-.3-.06-.41a.4.4 0 0 0-.22-.18q-.15-.04-.4-.07v-.2q.34-.07.63-.15.3-.08.6-.23l.19.15v6.9q0 .07.15.15.17.08.56.16V0Zm0 0"/>
    <path id="v" d="M4.83-4.33q-.3.07-.4.13-.08.05-.13.2L2.66.4q-.27.72-.63 1.16-.34.45-.72.66-.36.21-.68.22-.38 0-.63-.08-.23-.08-.23-.17 0-.05.1-.19l.22-.27q.15-.14.25-.2a1 1 0 0 0 .47.13q.25 0 .4-.05.2-.06.45-.4.26-.34.43-.76l.14-.34L.64-4a.3.3 0 0 0-.17-.2 1 1 0 0 0-.38-.13v-.22H2v.22a2 2 0 0 0-.5.11q-.12.06-.05.22L2.63-.9 3.76-4q.04-.15-.08-.22a2 2 0 0 0-.49-.1v-.23h1.63Zm0 0"/>
    <path id="w" d="M3.42-1.37q0 .52-.2.82t-.5.46-.56.18q-.29.05-.43.05a2 2 0 0 1-.56-.1A3 3 0 0 1 .52-.2Q.48-.23.47-.37V-.7l.01-.4q.03-.18.07-.27l.22.04q0 .42.36.7.35.3.85.29a.8.8 0 0 0 .57-.2.7.7 0 0 0 .23-.57.6.6 0 0 0-.12-.37q-.11-.15-.4-.32-.26-.17-.68-.39-.29-.15-.53-.31a2 2 0 0 1-.4-.4 1 1 0 0 1-.13-.52q0-.4.2-.69t.53-.42q.34-.15.7-.16a2.5 2.5 0 0 1 1.3.38q.04.03-.02.2-.04.15-.12.31L3-3.58l-.19-.04q-.23-.35-.48-.49-.26-.14-.5-.14a.7.7 0 0 0-.5.2.6.6 0 0 0-.19.4q0 .25.27.45.26.18.8.47.3.15.57.32.29.18.45.43.2.23.2.6m0 0"/>
    <path id="x" d="M4.23-2.72q-.09.1-.25.19l-.3.14H.9l.02-.44h2.34q.1 0 .14-.03a.3.3 0 0 0 .03-.16q0-.12-.04-.3a1 1 0 0 0-.15-.4 1 1 0 0 0-.3-.33 1 1 0 0 0-.5-.12q-.4 0-.7.23-.28.22-.45.61-.15.39-.16.9 0 .51.18.96t.5.72.76.27q.22 0 .4-.05.2-.05.45-.19.24-.14.6-.44l.12.11.07.1q-.44.46-.75.72-.3.22-.58.3-.26.07-.6.07-.5 0-.94-.28a2 2 0 0 1-.69-.78 3 3 0 0 1-.25-1.2q0-.66.28-1.24a2.4 2.4 0 0 1 1.31-1.2 1.6 1.6 0 0 1 1.38.06q.33.2.52.48.18.3.26.64.1.35.1.66m0 0"/>
    <path id="y" d="M3.3-.58q-.47.36-.92.55-.45.17-.7.17a.8.8 0 0 1-.6-.26Q.83-.41.83-1.08v-3H.2l-.1-.14.38-.33h.35v-1.2l.58-.5.15.13v1.57h1.6l.14.14q-.1.15-.25.3t-.24.2q-.12-.06-.36-.1a3 3 0 0 0-.64-.07h-.25v2.58q0 .6.11.81.12.2.42.2.18 0 .43-.06.26-.07.64-.28Zm0 0"/>
    <path id="z" d="M4.1-.92q-.43.48-.72.72a1 1 0 0 1-.55.28q-.26.06-.56.06-.48 0-.91-.26a2 2 0 0 1-.7-.8 3 3 0 0 1-.27-1.25 2.5 2.5 0 0 1 1.22-2.17q.57-.35 1.26-.35.33 0 .66.11t.5.28q0 .09-.03.24l-.12.31-.13.25-.19-.05a1 1 0 0 0-.36-.39 1.2 1.2 0 0 0-.76-.22q-.35 0-.64.2t-.49.62-.19 1.03q0 .55.2.97.23.4.57.64.34.22.74.22.18 0 .34-.04.15-.03.36-.17l.58-.44Zm0 0"/>
    <path id="A" d="M3.08-2.67 3-2.44l-.08.22H.42L.3-2.34l.15-.44h2.5Zm0 0"/>
    <path id="B" d="M5.13-.4q-.45.3-.7.42a1 1 0 0 1-.38.12q-.2 0-.3-.33t-.1-1.14v-4.89q0-.35-.06-.53-.02-.17-.17-.22-.15-.06-.48-.1v-.18q.39-.06.7-.14l.58-.17.16.14v6.19q0 .32.03.48t.07.23q.03.06.16.04.15-.03.42-.15ZM4-1.28q-.33.44-.62.75-.3.33-.63.49a1.3 1.3 0 0 1-1.47-.1 2 2 0 0 1-.64-.8 3 3 0 0 1-.1-2.1 3 3 0 0 1 1.21-1.42 2 2 0 0 1 1.53-.13q.3.1.67.47 0 .3-.06.4a1 1 0 0 1-.22.21q-.15-.3-.47-.48a1.3 1.3 0 0 0-.65-.18q-.63 0-1.03.47-.4.45-.4 1.38 0 .55.2.97.2.4.5.64.29.22.55.22.36 0 .72-.29.36-.3.72-.68.06.03.11.1.06.03.08.08m0 0"/>
    <path id="C" d="M3.05.14q-.29 0-.66-.16a3 3 0 0 1-.7-.46v2.3q0 .09.17.16t.66.16v.2H.27v-.2q.32-.07.5-.16.18-.06.18-.15v-5.3q0-.25-.04-.37-.04-.15-.2-.2-.13-.05-.44-.07v-.19l.6-.15q.3-.1.57-.24l.17.17.05.97q.48-.6.95-.86.48-.27.77-.28.65 0 1.09.61T4.9-2.4q0 .43-.16.88t-.42.83a3 3 0 0 1-.6.6q-.32.24-.68.24m0-4.22q-.2 0-.57.24t-.8.86v1.93q.45.33.76.46.32.1.6.1.52 0 .87-.4t.34-1.19q0-.57-.17-1.03a2 2 0 0 0-.46-.7.8.8 0 0 0-.57-.27m0 0"/>
    <path id="D" d="M3.27 0v-.2q.68-.19.68-.32v-2.57q0-.6-.15-.77t-.47-.19q-.33 0-.78.35a4 4 0 0 0-.86 1.01v2.17q0 .09.19.16.18.08.5.16V0H.27v-.2l.5-.16q.18-.07.18-.16v-5.82q0-.26-.04-.4a.3.3 0 0 0-.18-.17Q.6-6.95.27-6.98v-.2q.42-.07.68-.15.27-.1.55-.23l.19.15v4.07a4 4 0 0 1 1.33-1.18q.33-.16.59-.17.42 0 .75.27.33.25.33.8v3.1q0 .08.14.15t.54.17V0Zm0 0"/>
    <path id="E" d="M3.77-4.5q.05.02.03.27-.02.21-.1.48t-.15.45h-.2q-.07-.4-.23-.54A.4.4 0 0 0 2.8-4q-.22 0-.55.38-.32.38-.56 1.2v1.9q0 .09.17.16t.66.16V0H.27v-.2q.32-.07.5-.16.18-.07.18-.16v-2.82q0-.33-.03-.46a.4.4 0 0 0-.08-.17l-.18-.1-.4-.04v-.19l.63-.15q.31-.1.55-.24l.17.17.06 1.11q.27-.54.61-.9.36-.38.78-.38.15 0 .33.05.19.03.38.14m0 0"/>
    <path id="F" d="M1.8-.6q0 .33-.2.57a.6.6 0 0 1-.48.23Q.65.2.65-.36q0-.32.2-.56a.6.6 0 0 1 .47-.24q.48 0 .49.57m0 0"/>
    <path id="G" d="M6.25-5.94q-.34.05-.53.14-.17.1-.17.16v5.48l-.6-.18v-5.3q0-.06-.15-.16-.16-.08-.55-.14v-.22h2ZM5.55.14a1 1 0 0 1-.4-.1l-.18-.15-3.81-5.26a1.2 1.2 0 0 0-.91-.57v-.22h1.03q.15 0 .2.07.09.06.27.32l3.22 4.44q.05.1.2.28l.25.32.13.14ZM.25 0v-.2q.36-.05.53-.14t.17-.18v-5.32l.58-.13v5.45q0 .07.17.16.18.1.55.16V0Zm0 0"/>
    <path id="H" d="M4.64-2.37q0 .5-.19.95-.17.45-.48.8t-.7.56q-.42.2-.85.2a2 2 0 0 1-1.08-.3q-.46-.3-.7-.8a2.8 2.8 0 0 1-.08-2.15q.18-.45.47-.8.3-.35.72-.56.4-.21.86-.22.62 0 1.08.32.45.3.7.82.25.53.25 1.17m-.76.15q0-.51-.22-.95a2 2 0 0 0-.54-.7 1 1 0 0 0-.65-.29q-.5 0-.78.25-.3.26-.42.68-.13.4-.13.92 0 .51.24.95.23.45.56.7a1 1 0 0 0 .62.27q.7 0 1-.5t.31-1.33m0 0"/>
    <path id="I" d="M6.95-4.33q-.3.07-.37.13a.3.3 0 0 0-.11.17L5.39-.28a.4.4 0 0 1-.17.23 1.4 1.4 0 0 1-.5.2L3.48-3.42l.04-1.14h.31L5.09-.92l.85-3.11q.03-.1-.11-.17-.13-.08-.46-.13v-.22h1.58ZM2.56-.28a.5.5 0 0 1-.31.31q-.22.1-.34.11L.63-4.03q-.04-.19-.54-.3v-.22H2v.22q-.32.04-.46.08-.15.05-.16.1v.12l.93 3.1 1.18-3.62h.28l.1.52Zm0 0"/>
    <path id="J" d="M1.9-6.16a.7.7 0 0 1-.17.47q-.15.2-.39.2-.42 0-.42-.46 0-.3.17-.47.18-.2.4-.2.42 0 .42.46M.35 0v-.2q.7-.15.7-.32v-2.75a3 3 0 0 0-.04-.5Q.97-3.93.83-4t-.49-.1v-.2L1-4.45q.35-.1.6-.24h.17v4.17q0 .07.15.16.16.08.52.16V0Zm0 0"/>
    <path id="K" d="M4.73.6q0 .38-.21.73-.22.34-.58.58a3 3 0 0 1-1.66.53 4 4 0 0 1-1.4-.3q-.33-.16-.54-.42a1 1 0 0 1-.2-.6A1 1 0 0 1 .25.74q.1-.2.42-.45.33-.25.96-.58l.09.02.19.03q.1.03.1.1-.52.28-.76.48T.94.67L.88.92q0 .28.23.5.24.24.6.36.4.15.84.14.65 0 1.04-.33.4-.33.41-.82a.5.5 0 0 0-.12-.33 1 1 0 0 0-.44-.25 4 4 0 0 0-.9-.17q-.66-.06-1-.2-.37-.1-.5-.26a.5.5 0 0 1-.15-.31q0-.08.16-.3.15-.21.72-.57l.7-.08q-.45.27-.63.5-.15.2-.15.25 0 .08.1.15.1.08.37.14t.78.13q.7.08 1.1.25.38.18.54.4.15.24.15.47m.1-5.15-.13.27-.15.23-.53.07q-.27.03-.7.01l-.23-.37a5 5 0 0 0 1.64-.35Zm-.78 1.42q0 .5-.28.88-.3.38-.74.6-.45.21-.9.21-.7 0-1.18-.4a1.4 1.4 0 0 1-.47-1.1q0-.48.27-.87.28-.41.7-.64.44-.24.93-.24.46 0 .84.22.39.21.6.56.23.35.23.79m-.67.2q0-.52-.35-.9-.34-.37-1-.37a1 1 0 0 0-.36.1q-.2.12-.36.33a1 1 0 0 0-.14.55q0 .52.33.9.32.37 1.02.37.19 0 .37-.11a1 1 0 0 0 .34-.33q.15-.22.15-.55m0 0"/>
    <path id="L" d="M5.28-6.03q0 .25-.05.55-.03.3-.09.59h-.22q-.1-.45-.17-.64a.3.3 0 0 0-.28-.19H2.53l.14-.44h2.47Zm-4.44.31a.3.3 0 0 0-.17.06Q.6-5.6.5-5.42t-.23.56l-.22-.1.06-.6q.04-.35.1-.6h3.06l.14.44ZM1.5 0v-.2q.44-.1.63-.2.16-.1.17-.16v-5.19q0-.06-.2-.1l-.5-.09v-.22h2.18v.22l-.51.1q-.2.03-.2.09v5.19q0 .06.18.17.19.09.63.19V0Zm0 0"/>
    <path id="M" d="M4.7-4.33q-.2.02-.39.08-.19.07-.39.22l-2 1.6-.39-.13 1.53-1.35q.22-.18.22-.26t-.12-.13l-.3-.03v-.22H4.7ZM.14 0v-.2l.5-.16q.2-.06.19-.16v-5.8q0-.3-.06-.41a.3.3 0 0 0-.2-.18q-.13-.04-.43-.07v-.2l.67-.15q.32-.1.56-.23l.2.15v6.9q0 .08.07.14l.45.17V0Zm4.74-.1a5 5 0 0 1-.9.15A1 1 0 0 1 3.66 0a1 1 0 0 1-.24-.2L1.55-2.56l.51-.38L4.1-.54q.15.15.3.21.17.04.45.03Zm0 0"/>
    <path id="N" d="M1.8-.6q0 .33-.2.57a.6.6 0 0 1-.48.23Q.65.2.65-.36q0-.32.2-.56a.6.6 0 0 1 .47-.24q.48 0 .49.57m0-3.54q0 .32-.2.56a.6.6 0 0 1-.48.24q-.48 0-.48-.57 0-.32.2-.56a.6.6 0 0 1 .47-.23q.48 0 .49.56m0 0"/>
    <path id="O" d="M.34 0v-.2q.34-.07.52-.16.19-.07.19-.16v-5.12q0-.06-.2-.14a2 2 0 0 0-.5-.16v-.22h2.2v.22q-.33.07-.53.16t-.2.14v5.12q0 .07.18.16t.55.16V0Zm1.58-7.53q0 .28-.15.48a.5.5 0 0 1-.41.2q-.4 0-.4-.48a.7.7 0 0 1 .15-.47.5.5 0 0 1 .4-.18q.41 0 .41.45m0 0"/>
    <path id="P" d="M.34 0v-.2q.34-.07.52-.16.19-.07.19-.16v-5.12q0-.06-.2-.14a2 2 0 0 0-.5-.16v-.22h2.2v.22q-.33.07-.53.16t-.2.14v5.12q0 .07.18.16t.55.16V0Zm0 0"/>
    <path id="Q" d="M3.42-1.37q0 .52-.2.82t-.5.46-.56.18q-.29.05-.43.05a2 2 0 0 1-.56-.1A3 3 0 0 1 .52-.2Q.48-.23.47-.37V-.7l.01-.4q.03-.18.07-.27l.22.04q0 .42.36.7.35.3.85.29a.8.8 0 0 0 .57-.2.7.7 0 0 0 .23-.57.6.6 0 0 0-.12-.37q-.11-.15-.4-.32-.26-.17-.68-.39-.29-.15-.53-.31a2 2 0 0 1-.4-.4 1 1 0 0 1-.13-.52q0-.4.2-.69t.53-.42q.34-.15.7-.16a2.5 2.5 0 0 1 1.3.38q.04.03-.02.2-.04.15-.12.31L3-3.58l-.19-.04q-.23-.35-.48-.49-.26-.14-.5-.14a.7.7 0 0 0-.5.2.6.6 0 0 0-.19.4q0 .25.27.45.26.18.8.47.3.15.57.32.29.18.45.43.2.23.2.6m-.73 2.5q0 .35-.36.64-.34.27-1.14.4l-.11-.25q.51-.07.72-.25t.22-.33-.13-.23a1 1 0 0 0-.44-.1l.03-.09q.05-.1.13-.37l.26-.8h.38L2 .52q.27.05.47.18.21.15.22.43m0 0"/>
    <path id="R" d="M.34 0v-.2q.7-.15.7-.32v-2.75a3 3 0 0 0-.04-.5Q.97-3.93.83-4t-.49-.1v-.2L1-4.45q.35-.1.6-.24h.17v4.17q0 .07.15.16.16.08.52.16V0Zm0 0"/>
  </defs>
<rect width="100%" height="100%" fill="white" />
  <use xlink:href="#a" x="17.01" y="35.32"/>
  <use xlink:href="#b" x="30.83" y="35.32"/>
  <use xlink:href="#b" x="37.43" y="35.32"/>
  <use xlink:href="#c" x="48.9" y="35.32"/>
  <use xlink:href="#d" x="63.93" y="35.32"/>
  <use xlink:href="#e" x="74.57" y="35.32"/>
  <use xlink:href="#f" x="85.57" y="35.32"/>
  <use xlink:href="#g" x="97.92" y="35.32"/>
  <use xlink:href="#h" x="104.52" y="35.32"/>
  <use xlink:href="#i" x="117.3" y="35.32"/>
  <use xlink:href="#j" x="128.67" y="35.32"/>
  <use xlink:href="#k" x="142.72" y="35.32"/>
  <use xlink:href="#g" x="161.42" y="35.32"/>
  <use xlink:href="#b" x="168.02" y="35.32"/>
  <use xlink:href="#b" x="174.62" y="35.32"/>
  <use xlink:href="#l" x="186.1" y="35.32"/>
  <use xlink:href="#d" x="199.32" y="35.32"/>
  <use xlink:href="#m" x="214.82" y="35.32"/>
  <use xlink:href="#g" x="227.58" y="35.32"/>
  <use xlink:href="#n" x="234.18" y="35.32"/>
  <use xlink:href="#b" x="242.32" y="35.32"/>
  <use xlink:href="#d" x="248.92" y="35.32"/>
  <use xlink:href="#o" x="259.57" y="35.32"/>
  <use xlink:href="#e" x="269.6" y="35.32"/>
  <use xlink:href="#j" x="280.6" y="35.32"/>
  <use xlink:href="#d" x="289.82" y="35.32"/>
  <use xlink:href="#p" x="17.01" y="61.17"/>
  <use xlink:href="#q" x="25.18" y="61.17"/>
  <use xlink:href="#r" x="33.21" y="61.17"/>
  <use xlink:href="#s" x="37.8" y="61.17"/>
  <use xlink:href="#t" x="43.32" y="61.17"/>
  <use xlink:href="#r" x="48.62" y="61.17"/>
  <use xlink:href="#u" x="53.21" y="61.17"/>
  <use xlink:href="#u" x="55.92" y="61.17"/>
  <use xlink:href="#v" x="58.63" y="61.17"/>
  <use xlink:href="#w" x="65.78" y="61.17"/>
  <use xlink:href="#x" x="69.64" y="61.17"/>
  <use xlink:href="#s" x="74.26" y="61.17"/>
  <use xlink:href="#y" x="79.78" y="61.17"/>
  <use xlink:href="#x" x="83.22" y="61.17"/>
  <use xlink:href="#s" x="87.84" y="61.17"/>
  <use xlink:href="#z" x="93.36" y="61.17"/>
  <use xlink:href="#x" x="97.73" y="61.17"/>
  <use xlink:href="#A" x="102.35" y="61.17"/>
  <use xlink:href="#z" x="105.72" y="61.17"/>
  <use xlink:href="#r" x="110.09" y="61.17"/>
  <use xlink:href="#w" x="114.68" y="61.17"/>
  <use xlink:href="#x" x="118.54" y="61.17"/>
  <use xlink:href="#B" x="123.16" y="61.17"/>
  <use xlink:href="#C" x="130.58" y="61.17"/>
  <use xlink:href="#D" x="135.88" y="61.17"/>
  <use xlink:href="#E" x="141.39" y="61.17"/>
  <use xlink:href="#r" x="145.25" y="61.17"/>
  <use xlink:href="#w" x="149.84" y="61.17"/>
  <use xlink:href="#x" x="153.71" y="61.17"/>
  <use xlink:href="#F" x="158.33" y="61.17"/>
  <use xlink:href="#G" x="17.01" y="73.17"/>
  <use xlink:href="#H" x="23.5" y="73.17"/>
  <use xlink:href="#I" x="28.38" y="73.17"/>
  <use xlink:href="#w" x="37.65" y="73.17"/>
  <use xlink:href="#I" x="41.51" y="73.17"/>
  <use xlink:href="#J" x="48.57" y="73.17"/>
  <use xlink:href="#y" x="51.28" y="73.17"/>
  <use xlink:href="#z" x="54.72" y="73.17"/>
  <use xlink:href="#D" x="58.94" y="73.17"/>
  <use xlink:href="#u" x="66.67" y="73.17"/>
  <use xlink:href="#r" x="69.38" y="73.17"/>
  <use xlink:href="#s" x="73.97" y="73.17"/>
  <use xlink:href="#K" x="79.49" y="73.17"/>
  <use xlink:href="#t" x="84.37" y="73.17"/>
  <use xlink:href="#r" x="89.67" y="73.17"/>
  <use xlink:href="#K" x="94.26" y="73.17"/>
  <use xlink:href="#x" x="99.14" y="73.17"/>
  <use xlink:href="#w" x="103.76" y="73.17"/>
  <use xlink:href="#r" x="109.83" y="73.17"/>
  <use xlink:href="#s" x="114.42" y="73.17"/>
  <use xlink:href="#B" x="119.94" y="73.17"/>
  <use xlink:href="#w" x="127.35" y="73.17"/>
  <use xlink:href="#D" x="131.21" y="73.17"/>
  <use xlink:href="#H" x="136.73" y="73.17"/>
  <use xlink:href="#I" x="141.6" y="73.17"/>
  <use xlink:href="#L" x="150.88" y="73.17"/>
  <use xlink:href="#t" x="156.39" y="73.17"/>
  <use xlink:href="#E" x="161.69" y="73.17"/>
  <use xlink:href="#M" x="165.65" y="73.17"/>
  <use xlink:href="#J" x="170.53" y="73.17"/>
  <use xlink:href="#w" x="173.24" y="73.17"/>
  <use xlink:href="#D" x="177.1" y="73.17"/>
  <use xlink:href="#y" x="184.82" y="73.17"/>
  <use xlink:href="#J" x="188.26" y="73.17"/>
  <use xlink:href="#y" x="190.97" y="73.17"/>
  <use xlink:href="#u" x="194.41" y="73.17"/>
  <use xlink:href="#x" x="197.12" y="73.17"/>
  <use xlink:href="#z" x="201.74" y="73.17"/>
  <use xlink:href="#r" x="206.11" y="73.17"/>
  <use xlink:href="#w" x="210.7" y="73.17"/>
  <use xlink:href="#J" x="214.56" y="73.17"/>
  <use xlink:href="#s" x="217.27" y="73.17"/>
  <use xlink:href="#K" x="222.79" y="73.17"/>
  <use xlink:href="#N" x="227.67" y="73.17"/>
  <use xlink:href="#O" x="17.01" y="85.17"/>
  <use xlink:href="#u" x="19.99" y="85.17"/>
  <use xlink:href="#M" x="22.7" y="85.17"/>
  <use xlink:href="#P" x="29.81" y="85.17"/>
  <use xlink:href="#Q" x="32.79" y="85.17"/>
  <use xlink:href="#R" x="36.65" y="85.17"/>
  <use xlink:href="#u" x="39.36" y="85.17"/>
  <use xlink:href="#y" x="42.07" y="85.17"/>
  <use xlink:href="#R" x="45.51" y="85.17"/>
</svg>
