<svg xmlns="http://www.w3.org/2000/svg" xmlns:xlink="http://www.w3.org/1999/xlink" width="226.77" height="85.04">
  <defs>
    <path id="a" d="M12.36-13.19q0 .36-.08.92a24 24 0 0 1-.33 2.18h-.8q-.2-1-.34-1.58-.12-.58-.58-.58h-3.3l.32-1.28h4.7Zm-10.19.94q-.33 0-.6.5-.28.48-.76 1.75l-.78-.3a36 36 0 0 1 .27-2.25q.08-.6.17-.98h5.12l.13 1.28ZM3.22 0v-.78a5 5 0 0 0 1.34-.4q.35-.23.35-.38v-10.77q0-.12-.32-.19l-1.09-.23v-.78h5.63v.78q-.72.15-1.15.22-.4.05-.4.2v10.77q0 .14.34.36t1.35.42V0Zm0 0"/>
    <path id="b" d="M5.08-13.55q0 .72-.52 1.2-.51.45-1.28.44-.6 0-1.05-.3-.42-.3-.42-.9 0-.73.52-1.17.51-.45 1.26-.45.58 0 1.04.28.45.28.45.9M.68 0v-.78q.7-.15 1.05-.33t.36-.33v-5.53q0-.71-.06-1.08-.04-.37-.36-.51-.3-.15-1-.22v-.77q.93-.12 1.75-.3.82-.2 1.56-.46h.7v8.87q0 .13.3.31.33.2 1.13.35V0Zm0 0"/>
    <path id="c" d="M7.9-1.67Q6.5-.63 5.49-.16a4 4 0 0 1-1.54.49Q3 .33 2.34-.4t-.67-2.23v-6.02H.36l-.31-.4.84-.94h.78v-2.25l2.16-1.61.42.36v3.5h3.27l.39.37q-.2.38-.55.78-.33.4-.53.56-.27-.13-.78-.25-.52-.12-1.08-.12h-.72v5.02q0 1.1.25 1.54.24.45.66.44.38 0 .87-.16.5-.17 1.4-.65Zm0 0"/>
    <path id="d" d="M.56 0v-.78a5 5 0 0 0 1.24-.33q.3-.15.3-.33v-12.15q0-.64-.12-.93a.6.6 0 0 0-.4-.36q-.3-.08-.9-.17v-.75q1.07-.14 1.87-.32.81-.19 1.67-.54l.45.46v14.76q0 .16.33.33t1.2.33V0Zm0 0"/>
    <path id="e" d="M9.95-5.9q-.2.21-.68.48-.49.26-.83.39H1.95l.03-1.2h4.99q.24 0 .33-.08.08-.08.08-.32 0-.41-.18-.98-.15-.56-.58-.98a1.5 1.5 0 0 0-1.14-.44Q4.31-9.03 3.83-8a7 7 0 0 0-.47 2.73q0 1.64.69 2.72a2.3 2.3 0 0 0 2.01 1.07q.45 0 .88-.08t.98-.36q.57-.28 1.4-.86.15.08.34.34l.23.35q-1 1.01-1.75 1.53a4.6 4.6 0 0 1-2.98.89q-1.23 0-2.24-.64A4.6 4.6 0 0 1 1.3-2.1Q.7-3.23.7-4.75a5.3 5.3 0 0 1 3.57-5.27q.8-.3 1.6-.3 1.4 0 2.3.63t1.35 1.63q.42 1 .43 2.15m0 0"/>
    <path id="f" d="M9.6-2.05A9 9 0 0 1 7.9-.48a4.4 4.4 0 0 1-2.74.8q-1.18 0-2.2-.6a4.5 4.5 0 0 1-1.63-1.75A5.6 5.6 0 0 1 .7-4.77a5.4 5.4 0 0 1 2.78-4.8 6 6 0 0 1 4.1-.63q.62.1 1.15.3.54.18.77.43.03.14-.06.53-.09.4-.24.86l-.3.88q-.15.4-.24.54l-.72-.1a5 5 0 0 0-.88-1.63q-.51-.58-1.37-.58a2 2 0 0 0-1.17.4 2.6 2.6 0 0 0-.9 1.23 6 6 0 0 0-.34 2.23q0 1.73.81 2.67.83.96 2 .96.41 0 .79-.08.37-.07.87-.33a10 10 0 0 0 1.27-.84Zm0 0"/>
    <path id="g" d="M10.92-1.2A13 13 0 0 1 8.5.1a2 2 0 0 1-.8.23q-.44 0-.73-.56-.28-.58-.28-1.54v-5.6q0-.68-.3-1.11-.28-.45-1.1-.44-.51 0-.96.37t-.4 1q.03.12-.35.27-.36.15-.9.31-.51.14-.96.24-.45.08-.56.04l-.24-.58q.35-.84 1.19-1.53a6.7 6.7 0 0 1 4.3-1.51q1.47 0 2.17.75.69.73.69 1.83v5.17q0 .84.43.84.14 0 .35-.06t.62-.24ZM6.8-5.08q-1.35.23-1.9.42-.57.2-.85.5t-.46.61q-.17.32-.17.77 0 .74.36.98t.64.24q.42 0 .97-.24.56-.23 1.4-.98l.1 1.2a6 6 0 0 1-2.01 1.5q-1 .4-1.74.4-.58 0-1.16-.27a2 2 0 0 1-.92-.82A2.5 2.5 0 0 1 .7-2.16q0-.73.27-1.23.26-.51.66-.92.35-.35.87-.66.53-.3 1.53-.6 1-.29 2.77-.57Zm0 0"/>
    <path id="h" d="M8.4-3.05q0 1.14-.48 1.83-.48.68-1.19 1.02-.7.33-1.42.42-.7.1-1.17.1-.68 0-1.58-.18a5 5 0 0 1-1.6-.6Q.92-.5.87-.85A9 9 0 0 1 .89-2.7a5 5 0 0 1 .16-.9l.86.12q.23 1.14.95 1.8.73.69 1.66.68 1.5 0 1.51-1.2 0-.82-.75-1.36-.74-.53-1.83-1.1-.6-.3-1.17-.7a4 4 0 0 1-.95-.89 2 2 0 0 1-.38-1.19q0-.9.55-1.53.54-.63 1.42-.98.9-.36 1.86-.36.92 0 1.83.23.9.22 1.4.6.06.04.02.36-.03.3-.14.68a6 6 0 0 1-.5 1.28l-.73-.07q-.56-1.96-2-1.96-.65 0-1 .31a1 1 0 0 0-.35.74q0 .64.6 1.06T5.77-6q.62.32 1.23.7.6.38 1 .92t.4 1.33m0 0"/>
    <path id="i" d="M10.84-5.2q0 1.06-.42 2.06A5.8 5.8 0 0 1 7.6-.12q-.95.45-2.01.45Q4.08.33 3-.34a4.6 4.6 0 0 1-1.7-1.82 5.8 5.8 0 0 1 .88-6.45A5 5 0 0 1 6-10.3q1.43 0 2.54.67a4.5 4.5 0 0 1 1.68 1.81q.61 1.14.61 2.63m-2.7.47q0-1.13-.31-2.08a4 4 0 0 0-.88-1.57q-.55-.59-1.26-.59-.9 0-1.4.52-.5.5-.68 1.39a10 10 0 0 0-.19 1.98q0 1.13.33 2.05.34.92.9 1.47t1.22.54q1.29 0 1.77-.96.5-.98.5-2.75m0 0"/>
    <path id="j" d="M7.42.33q-.63 0-1.3-.28T4.53-.9v4.6q0 .16.39.34.4.17 1.42.33v.78H.52v-.79q1.42-.34 1.42-.67V-7.4q0-.54-.08-.82a.5.5 0 0 0-.38-.4q-.3-.13-.96-.16v-.77q.8-.09 1.36-.18.54-.11 1.01-.25l1.02-.33.43.45.11 1.31A8 8 0 0 1 6.5-9.94a4 4 0 0 1 1.48-.37q.98 0 1.8.53t1.33 1.62a6.74 6.74 0 0 1-2.3 8q-.73.49-1.39.49M6.7-8.48q-.25 0-.52.09t-.65.34-1 .77v4.83q.75.43 1.25.65.49.21.84.27.36.05.7.05.82 0 1.35-.8t.53-2.3q0-1.37-.38-2.23-.37-.86-.94-1.27-.56-.4-1.18-.4m0 0"/>
    <path id="k" d="M7.13 0v-.78q.75-.2 1.09-.36.33-.15.33-.3V-6.3q0-1.2-.25-1.61-.25-.45-.9-.44-.51 0-1.18.31-.68.3-1.7 1.2v5.41q0 .36 1.42.66V0H.52v-.78q1.42-.37 1.42-.66V-7.4q0-.54-.06-.8-.08-.27-.36-.38-.3-.1-1-.2v-.76a13 13 0 0 0 3.39-.76l.43.45.13 1.55A10 10 0 0 1 6.8-9.84a5 5 0 0 1 1.94-.47q.92 0 1.64.62.73.63.73 2.13v6.12q0 .15.29.3.3.14 1.14.36V0Zm0 0"/>
    <path id="l" d="M3.98-7.1q0 .06-.1.16-.12.12-.27.22l-.23.16a2 2 0 0 0-.47-.3q-.24-.1-.36-.1-.18 0-.38.18-.18.15-.33.6-.14.41-.14 1.21v.42h1.27l.14.14q-.1.15-.25.3t-.23.2a2 2 0 0 0-.92-.17V-.5q0 .06.21.13l.81.17V0H.3v-.2q.32-.06.5-.14.18-.1.18-.16v-3.58H.33l-.11-.14.37-.33H1v-.14q0-.78.12-1.23.14-.45.36-.72t.48-.49q.27-.2.6-.3.33-.13.53-.13.18 0 .4.1.23.07.36.2.15.1.14.17m0 0"/>
    <path id="m" d="M2.81.14A2.2 2.2 0 0 1 .98-.8q-.3-.45-.46-1a4.3 4.3 0 0 1 .04-2.44q.22-.6.6-1.05t.87-.73a2.24 2.24 0 0 1 2.9.72q.31.43.48 1 .15.56.15 1.15a3.8 3.8 0 0 1-.83 2.33q-.37.45-.87.72-.48.25-1.05.25m.14-.58q.82 0 1.33-.67.53-.66.53-1.97 0-.5-.14-.97-.12-.47-.37-.86a2 2 0 0 0-.6-.59 1.3 1.3 0 0 0-.75-.23q-.85 0-1.36.7a3.3 3.3 0 0 0-.48 1.9q0 .73.25 1.35.24.6.67.98.42.37.92.36m0 0"/>
    <path id="n" d="M4.97-1.73q0 .54-.3.95-.29.4-.78.62T2.73.06L2.06.05 1.3.03.6 0l1.09-.48q.15.08.44.1.27.04.5.04.7 0 1.1-.35.43-.33.43-.89 0-.35-.18-.72a1.4 1.4 0 0 0-1.43-.87 5 5 0 0 0-1.08.1l-.05-.48h.49q.73 0 1.1-.17.4-.18.52-.47.13-.27.13-.54 0-.33-.16-.6a1 1 0 0 0-.5-.4 3 3 0 0 0-.98-.16q-.4 0-.88.06a10 10 0 0 0-.89.13L.2-6q.26-.08.6-.14.36-.08.75-.11.38-.05.75-.05.96 0 1.54.36.58.34.58.96 0 .53-.25.9-.25.38-.69.55.44.08.75.34.35.25.54.63.2.37.2.83M.25 0v-.2q.34-.07.52-.16.18-.07.18-.16V-5.9l.78-.1v5.5q0 .06.18.15t.53.16V0Zm0 0"/>
    <path id="o" d="M1.86-2.17 1.3-.55q-.05.16.13.24.18.06.6.1V0H0v-.2q.34-.06.52-.13.2-.06.25-.22l1.82-5.5q.1-.1.27-.2l.3-.19L5.2-.54q.05.14.2.21.12.09.44.13V0H3.8v-.2q.38-.03.51-.1.15-.07.1-.25l-.55-1.62Zm1.84-.44-.86-2.51L2-2.61Zm0 0"/>
    <path id="p" d="M4.53-4.81q0 .63-.31 1.04-.3.41-.83.63A3 3 0 0 1 1.67-3l-.03-.4.28.06h.25q.76 0 1.17-.35.43-.33.43-.98 0-.53-.4-.88-.39-.33-1.26-.34-.42 0-.9.06-.46.05-.96.13L.2-6q.46-.12.94-.2.5-.1 1.16-.1 1.12 0 1.67.42.56.43.56 1.07M5.56-.2q-.33.12-.62.19-.29.06-.47.06a1 1 0 0 1-.28-.08l-.2-.18-1.5-2.78.51-.33L4.63-.67q.15.2.35.26.21.05.54.02ZM.25 0v-.2q.34-.07.52-.16.18-.07.18-.16v-5.45h.78v5.45q0 .07.18.16t.53.16V0Zm0 0"/>
  </defs>
<rect width="100%" height="100%" fill="white" />
  <use xlink:href="#a" x="11.34" y="20.9"/>
  <use xlink:href="#b" x="24.1" y="20.9"/>
  <use xlink:href="#c" x="30.7" y="20.9"/>
  <use xlink:href="#d" x="38.84" y="20.9"/>
  <use xlink:href="#e" x="45.44" y="20.9"/>
  <use xlink:href="#f" x="56.09" y="20.9"/>
  <use xlink:href="#g" x="66.12" y="20.9"/>
  <use xlink:href="#h" x="77.12" y="20.9"/>
  <use xlink:href="#e" x="86.34" y="20.9"/>
  <use xlink:href="#i" x="101.83" y="20.9"/>
  <use xlink:href="#j" x="113.38" y="20.9"/>
  <use xlink:href="#c" x="125.68" y="20.9"/>
  <use xlink:href="#b" x="133.82" y="20.9"/>
  <use xlink:href="#i" x="140.42" y="20.9"/>
  <use xlink:href="#k" x="151.97" y="20.9"/>
  <use xlink:href="#h" x="164.75" y="20.9"/>
  <use xlink:href="#l" x="11.34" y="34.63"/>
  <use xlink:href="#m" x="14.45" y="34.63"/>
  <use xlink:href="#m" x="20.45" y="34.63"/>
  <use xlink:href="#n" x="28.67" y="34.63"/>
  <use xlink:href="#o" x="34.17" y="34.63"/>
  <use xlink:href="#p" x="40.12" y="34.63"/>
  <use xlink:href="#l" x="11.34" y="46.63"/>
  <use xlink:href="#m" x="14.45" y="46.63"/>
  <use xlink:href="#m" x="20.45" y="46.63"/>
  <use xlink:href="#n" x="28.67" y="46.63"/>
  <use xlink:href="#o" x="34.17" y="46.63"/>
  <use xlink:href="#p" x="40.12" y="46.63"/>
</svg>
